<?xml version="1.0" encoding="utf-8"?>
<!-- Generator: Adobe Illustrator 24.1.2, SVG Export Plug-In . SVG Version: 6.00 Build 0)  -->
<svg version="1.0" id="Layer_1" xmlns="http://www.w3.org/2000/svg" xmlns:xlink="http://www.w3.org/1999/xlink" x="0px" y="0px"
	 viewBox="0 0 1374.9 500" style="enable-background:new 0 0 1374.9 500;" xml:space="preserve">
<style type="text/css">
	.st0{fill:#2A9FD9;}
	.st1{fill:none;stroke:#2367B1;stroke-width:0.75;stroke-miterlimit:10;}
	.st2{fill:#2367B1;}
	.st3{fill:#BBBBBB;}
	.st4{fill:#878787;}
	.st5{fill:none;}
	.st6{fill:#010101;}
	.st7{font-family:'Roboto-Light';}
	.st8{font-size:16.5132px;}
	.st9{font-size:14.4491px;}
	.st10{font-family:'Roboto-Regular';}
	.st11{font-size:12.3849px;}
	.st12{fill:#FFFFFF;}
	.st13{font-family:'Roboto-Bold';}
	.st14{font-size:16px;}
</style>
<g>
	<rect x="200.05" y="399.63" class="st0" width="39.93" height="20.07"/>
	<rect x="348" y="399.63" class="st0" width="60.47" height="20.07"/>
	<rect x="625.56" y="399.63" class="st0" width="40.97" height="20.07"/>
	<line class="st1" x1="-1.28" y1="394.61" x2="1375.92" y2="394.61"/>
	<rect x="145.23" y="253.77" class="st2" width="40.62" height="45.2"/>
	<rect x="145.23" y="71.32" class="st0" width="40.62" height="182.45"/>
	<rect x="198.72" y="78.63" class="st2" width="40.62" height="117.74"/>
	<rect x="145.23" y="298.97" class="st3" width="40.62" height="67.49"/>
	<rect x="198.72" y="196.37" class="st3" width="40.62" height="40.62"/>
	<rect x="145.23" y="366.45" class="st4" width="40.62" height="28.16"/>
	<rect x="252.2" y="288.43" class="st4" width="40.62" height="106.18"/>
	<rect x="252.2" y="227.75" class="st3" width="40.62" height="62.33"/>
	<rect x="252.2" y="180.38" class="st2" width="40.62" height="47.15"/>
	<rect x="359.19" y="258.91" class="st4" width="40.62" height="135.7"/>
	<rect x="412.04" y="357.32" class="st4" width="40.62" height="37.29"/>
	<rect x="412.04" y="320.03" class="st3" width="40.62" height="37.29"/>
	<rect x="412.04" y="290.08" class="st2" width="40.62" height="29.95"/>
	<rect x="412.04" y="169.99" class="st0" width="40.62" height="121.35"/>
	<rect x="519.54" y="386.33" class="st4" width="40.62" height="8.28"/>
	<rect x="519.54" y="279.47" class="st3" width="40.62" height="106.86"/>
	<rect x="519.54" y="230.67" class="st2" width="40.62" height="48.8"/>
	<rect x="519.54" y="216.22" class="st0" width="40.62" height="14.45"/>
	<rect x="573.16" y="390.47" class="st4" width="40.62" height="4.14"/>
	<rect x="573.16" y="330.77" class="st3" width="40.62" height="59.7"/>
	<rect x="573.16" y="281.93" class="st2" width="40.62" height="48.84"/>
	<rect x="573.16" y="237.29" class="st0" width="40.62" height="44.64"/>
	<rect x="626" y="350.29" class="st4" width="40.62" height="44.32"/>
	<rect x="626" y="259.61" class="st3" width="40.62" height="90.68"/>
	<rect x="626" y="250.54" class="st2" width="40.62" height="9.07"/>
	<rect x="626" y="239.43" class="st0" width="40.62" height="11.11"/>
	<rect x="732.47" y="338.67" class="st4" width="40.62" height="55.94"/>
	<rect x="732.47" y="326.27" class="st3" width="40.62" height="12.4"/>
	<rect x="732.47" y="310.43" class="st2" width="40.62" height="15.84"/>
	<rect x="732.47" y="306.65" class="st0" width="40.62" height="3.78"/>
	<rect x="786.09" y="347.09" class="st4" width="40.62" height="47.52"/>
	<rect x="786.09" y="332.47" class="st3" width="40.62" height="14.62"/>
	<rect x="786.09" y="318.35" class="st2" width="40.62" height="14.12"/>
	<rect x="786.09" y="315.99" class="st0" width="40.62" height="2.36"/>
	<rect x="891.78" y="389.34" class="st4" width="40.62" height="5.27"/>
	<rect x="945.4" y="379.77" class="st4" width="40.62" height="14.84"/>
	<rect x="945.4" y="330.65" class="st2" width="40.62" height="49.12"/>
	<rect x="999.02" y="390.94" class="st3" width="40.62" height="3.67"/>
	<rect x="999.02" y="384.3" class="st2" width="40.62" height="6.64"/>
	<rect x="999.02" y="349.29" class="st0" width="40.62" height="35.01"/>
	<rect x="1052.64" y="361.47" class="st2" width="40.62" height="33.14"/>
	<rect x="1106.26" y="383.75" class="st3" width="40.62" height="10.86"/>
	<rect x="1106.26" y="364.49" class="st0" width="40.62" height="19.25"/>
	<rect x="1159.11" y="381.04" class="st4" width="40.62" height="13.56"/>
	<rect x="1215.1" y="366.21" class="st4" width="40.62" height="28.4"/>
	<rect x="1215.1" y="352.99" class="st3" width="40.62" height="13.22"/>
	<rect x="1215.1" y="84.98" class="st2" width="40.62" height="268"/>
	<rect x="1215.1" y="42.61" class="st0" width="40.62" height="42.37"/>
	<rect x="1215.1" y="366.21" class="st4" width="40.62" height="28.4"/>
	<rect x="1159.11" y="378.95" class="st2" width="40.62" height="2.1"/>
	<rect x="1159.11" y="367.3" class="st0" width="40.62" height="11.65"/>
	<rect x="198.72" y="234" class="st4" width="40.62" height="160.61"/>
	<rect x="198.72" y="72.05" class="st0" width="40.62" height="6.58"/>
	<rect x="252.2" y="102.64" class="st0" width="40.62" height="77.74"/>
	<rect x="359.19" y="167.13" class="st3" width="40.62" height="91.79"/>
	<rect x="359.19" y="162.51" class="st2" width="40.62" height="4.62"/>
	<rect x="359.19" y="158.7" class="st0" width="40.62" height="3.8"/>
	<rect x="891.78" y="388.53" class="st3" width="40.62" height="0.81"/>
	<rect x="891.78" y="304.95" class="st0" width="40.62" height="82.63"/>
	<rect x="891.78" y="387.27" class="st3" width="40.62" height="2.07"/>
	<rect x="945.4" y="377.65" class="st3" width="40.62" height="2.12"/>
	<rect x="106.76" y="22.99" class="st5" width="27.5" height="26.72"/>
	<text transform="matrix(1 0 0 1 106.7622 35.3779)" class="st6 st7 st8">12</text>
	<rect x="106.76" y="84.43" class="st5" width="27.5" height="26.72"/>
	<text transform="matrix(1 0 0 1 106.7622 96.8096)" class="st6 st7 st8">10</text>
	<rect x="106.76" y="142.54" class="st5" width="27.5" height="26.72"/>
	<text transform="matrix(1 0 0 1 106.7622 154.9277)" class="st6 st7 st8">  8</text>
	<rect x="108.96" y="203.96" class="st5" width="27.5" height="26.72"/>
	<text transform="matrix(1 0 0 1 108.9565 216.3398)" class="st6 st7 st8">  6</text>
	<rect x="107.79" y="266.11" class="st5" width="27.5" height="26.72"/>
	<text transform="matrix(1 0 0 1 107.7949 278.4941)" class="st6 st7 st8">  4</text>
	<rect x="107.79" y="328.16" class="st5" width="27.5" height="26.72"/>
	<text transform="matrix(1 0 0 1 107.7949 340.5449)" class="st6 st7 st8">  2</text>
	<rect x="108.96" y="388.01" class="st5" width="27.5" height="26.72"/>
	<text transform="matrix(1 0 0 1 108.9565 400.3955)" class="st6 st7 st8">  0</text>
	<rect x="149.45" y="51.84" class="st5" width="37.36" height="16.42"/>
	<text transform="matrix(1 0 0 1 149.4497 62.6768)" class="st6 st7 st9">10.6</text>
	<rect x="204.27" y="51.75" class="st5" width="37.36" height="16.42"/>
	<text transform="matrix(1 0 0 1 204.272 62.5879)" class="st6 st7 st9">10.6</text>
	<rect x="262.09" y="76.21" class="st5" width="37.36" height="16.42"/>
	<text transform="matrix(1 0 0 1 262.0928 87.0508)" class="st6 st7 st9">9.6</text>
	<rect x="365.97" y="134.33" class="st5" width="37.36" height="16.42"/>
	<text transform="matrix(1 0 0 1 365.9717 145.168)" class="st6 st7 st9">7.7</text>
	<rect x="420.03" y="137.87" class="st5" width="37.36" height="16.42"/>
	<text transform="matrix(1 0 0 1 420.0264 148.71)" class="st6 st7 st9">7.4</text>
	<rect x="530.64" y="188.15" class="st5" width="37.36" height="16.42"/>
	<text transform="matrix(1 0 0 1 530.6396 198.9912)" class="st6 st7 st9">5.9</text>
	<rect x="581.48" y="208.47" class="st5" width="37.36" height="16.42"/>
	<text transform="matrix(1 0 0 1 581.4775 219.3018)" class="st6 st7 st9">5.2</text>
	<rect x="635.87" y="213.94" class="st5" width="37.36" height="16.42"/>
	<text transform="matrix(1 0 0 1 635.8662 224.7744)" class="st6 st7 st9">5.1</text>
	<rect x="742.32" y="281.87" class="st5" width="37.36" height="16.42"/>
	<text transform="matrix(1 0 0 1 742.3193 292.7021)" class="st6 st7 st9">2.9</text>
	<rect x="795.21" y="290.08" class="st5" width="37.36" height="16.42"/>
	<text transform="matrix(1 0 0 1 795.2051 300.9141)" class="st6 st7 st9">2.6</text>
	<rect x="902.13" y="281.5" class="st5" width="37.36" height="16.42"/>
	<text transform="matrix(1 0 0 1 902.1328 292.3379)" class="st6 st7 st9">2.9</text>
	<rect x="954.97" y="307.78" class="st5" width="37.36" height="16.42"/>
	<text transform="matrix(1 0 0 1 954.9727 318.6162)" class="st6 st7 st9">2.1</text>
	<rect x="1009.65" y="326.22" class="st5" width="37.36" height="16.42"/>
	<text transform="matrix(1 0 0 1 1009.6484 337.0605)" class="st6 st7 st9">1.5</text>
	<rect x="1061.28" y="338.06" class="st5" width="37.36" height="16.42"/>
	<text transform="matrix(1 0 0 1 1061.2822 348.8916)" class="st6 st7 st9">1.1</text>
	<rect x="1116.41" y="346.27" class="st5" width="37.36" height="16.42"/>
	<text transform="matrix(1 0 0 1 1116.4082 357.1035)" class="st6 st7 st9">1.0</text>
	<rect x="1167.77" y="348.78" class="st5" width="37.36" height="16.42"/>
	<text transform="matrix(1 0 0 1 1167.7744 359.6201)" class="st6 st7 st9">0.9</text>
	<rect x="1222.93" y="19.78" class="st5" width="37.36" height="16.42"/>
	<text transform="matrix(1 0 0 1 1222.9268 30.6162)" class="st6 st7 st9">11.6</text>
	<rect x="144.2" y="405.71" class="st5" width="51.6" height="31.42"/>
	<text transform="matrix(1 0 0 1 144.1992 415.002)" class="st6 st10 st11">Toyota</text>
	<rect x="210.56" y="405.71" class="st5" width="43.93" height="31.42"/>
	<text transform="matrix(1 0 0 1 210.564 415.002)" class="st12 st10 st11">VW</text>
	<rect x="258.76" y="404.69" class="st5" width="43.93" height="31.42"/>
	<text transform="matrix(1 0 0 1 258.7612 413.9834)" class="st6 st10 st11">RNM</text>
	<rect x="351.88" y="404.69" class="st5" width="55.95" height="31.42"/>
	<text transform="matrix(1 0 0 1 351.8828 413.9834)" class="st12 st10 st11">FCA+PSA</text>
	<rect x="411.85" y="402.97" class="st5" width="55.95" height="31.42"/>
	<text transform="matrix(1 0 0 1 411.8496 412.2627)" class="st6 st10 st11">Hyundai</text>
	<rect x="530.64" y="404.69" class="st5" width="27.98" height="31.42"/>
	<text transform="matrix(1 0 0 1 530.6396 413.9834)" class="st6 st10 st11">GM</text>
	<rect x="575.71" y="404.69" class="st5" width="38.07" height="31.42"/>
	<text transform="matrix(1 0 0 1 575.7129 413.9834)" class="st6 st10 st11">Honda</text>
	<rect x="633.72" y="404.69" class="st5" width="38.07" height="31.42"/>
	<text transform="matrix(1 0 0 1 633.7178 413.9834)" class="st12 st10 st11">Ford</text>
	<rect x="786.09" y="404.69" class="st5" width="44.74" height="31.42"/>
	<text transform="matrix(1 0 0 1 793.7046 413.9834)" class="st6 st10 st11">BMW</text>
	<rect x="890.76" y="404.69" class="st5" width="44.74" height="31.42"/>
	<text transform="matrix(1 0 0 1 894.9165 413.9834)" class="st6 st10 st11">Suzuki</text>
	<rect x="943.34" y="404.69" class="st5" width="44.74" height="31.42"/>
	<text transform="matrix(1 0 0 1 950.5 413.9834)" class="st6 st10 st11">Geely</text>
	<rect x="996.96" y="404.69" class="st5" width="44.74" height="31.42"/>
	<text transform="matrix(1 0 0 1 1000.6289 413.9834)" class="st6 st10 st11">Mazda</text>
	<rect x="1044.93" y="404.69" class="st5" width="57.55" height="31.42"/>
	<text transform="matrix(1 0 0 1 1045.3135 413.9834)" class="st6 st10 st11">Great Wall</text>
	<rect x="1099.68" y="404.69" class="st5" width="57.55" height="31.42"/>
	<text transform="matrix(1 0 0 1 1109.0098 413.9834)" class="st6 st10 st11">Subaru</text>
	<rect x="1152.52" y="404.69" class="st5" width="57.55" height="31.42"/>
	<text transform="matrix(1 0 0 1 1168.8398 413.9834)" class="st6 st10 st11">Tata</text>
	<rect x="1206.64" y="404.69" class="st5" width="57.55" height="31.42"/>
	<text transform="matrix(1 0 0 1 1217.1553 413.9834)" class="st6 st10 st11">Others</text>
	<rect x="121.51" y="449.8" class="st4" width="9.88" height="8.43"/>
	<rect x="141.26" y="449.8" class="st5" width="74.3" height="31.42"/>
	<text transform="matrix(1 0 0 1 141.2593 459.0908)" class="st6 st10 st11">EMEA</text>
	<rect x="197.72" y="449.8" class="st3" width="9.88" height="8.43"/>
	<rect x="299.38" y="449.8" class="st2" width="9.88" height="8.43"/>
	<rect x="319.14" y="449.8" class="st5" width="74.3" height="31.42"/>
	<text transform="matrix(1 0 0 1 319.1362 459.0908)" class="st6 st10 st11">CHINA</text>
	<rect x="370.1" y="449.8" class="st0" width="9.88" height="8.43"/>
	<rect x="389.85" y="449.8" class="st5" width="74.3" height="31.42"/>
	<text transform="matrix(1 0 0 1 389.8486 459.0908)"><tspan x="0" y="0" class="st6 st10 st11">OTHER </tspan><tspan x="0" y="14.86" class="st6 st10 st11">APAC</tspan></text>
	<rect x="217.47" y="449.8" class="st5" width="74.3" height="31.42"/>
	<text transform="matrix(1 0 0 1 217.4678 459.0908)" class="st6 st10 st11">AMERICAS</text>
	<rect x="120.3" y="467.87" class="st5" width="244.38" height="84.49"/>
	<text transform="matrix(1 0 0 1 120.2983 477.1592)" class="st6 st10 st11">Source : IHS Markit</text>
	<text transform="matrix(1 0 0 1 510.8332 38.4014)" class="st2 st13 st14">2019 PRODUCTION BY REGION (MILLION UNITS)</text>
</g>
</svg>
