<?xml version="1.0" encoding="utf-8"?>
<!-- Generator: Adobe Illustrator 24.1.3, SVG Export Plug-In . SVG Version: 6.00 Build 0)  -->
<svg version="1.1" id="Layer_1" xmlns="http://www.w3.org/2000/svg" xmlns:xlink="http://www.w3.org/1999/xlink" x="0px" y="0px"
	 viewBox="0 0 1374.9 500" style="enable-background:new 0 0 1374.9 500;" xml:space="preserve">
<style type="text/css">
	.st0{fill:#2A9FD9;}
	.st1{fill:none;stroke:#2367B1;stroke-width:0.75;stroke-miterlimit:10;}
	.st2{fill:#2367B1;}
	.st3{fill:#BBBBBB;}
	.st4{fill:#878787;}
	.st5{fill:none;}
	.st6{fill:#010101;}
	.st7{font-family:'Roboto-Light';}
	.st8{font-size:16.5132px;}
	.st9{font-size:14.4491px;}
	.st10{font-family:'Roboto-Regular';}
	.st11{font-size:12.3849px;}
	.st12{fill:#FFFFFF;}
	.st13{font-family:'Roboto-Bold';}
	.st14{font-size:16px;}
</style>
<g>
	<rect x="200.1" y="399.6" class="st0" width="39.9" height="20.1"/>
	<rect x="348" y="399.6" class="st0" width="60.5" height="20.1"/>
	<rect x="625.6" y="399.6" class="st0" width="41" height="20.1"/>
	<line class="st1" x1="-1.3" y1="394.6" x2="1375.9" y2="394.6"/>
	<rect x="145.2" y="253.8" class="st2" width="40.6" height="45.2"/>
	<rect x="145.2" y="71.3" class="st0" width="40.6" height="182.4"/>
	<rect x="198.7" y="78.6" class="st2" width="40.6" height="117.7"/>
	<rect x="145.2" y="299" class="st3" width="40.6" height="67.5"/>
	<rect x="198.7" y="196.4" class="st3" width="40.6" height="40.6"/>
	<rect x="145.2" y="366.5" class="st4" width="40.6" height="28.2"/>
	<rect x="252.2" y="288.4" class="st4" width="40.6" height="106.2"/>
	<rect x="252.2" y="227.8" class="st3" width="40.6" height="62.3"/>
	<rect x="252.2" y="180.4" class="st2" width="40.6" height="47.1"/>
	<rect x="359.2" y="258.9" class="st4" width="40.6" height="135.7"/>
	<rect x="412" y="357.3" class="st4" width="40.6" height="37.3"/>
	<rect x="412" y="320" class="st3" width="40.6" height="37.3"/>
	<rect x="412" y="290.1" class="st2" width="40.6" height="30"/>
	<rect x="412" y="170" class="st0" width="40.6" height="121.3"/>
	<rect x="519.5" y="386.3" class="st4" width="40.6" height="8.3"/>
	<rect x="519.5" y="279.5" class="st3" width="40.6" height="106.9"/>
	<rect x="519.5" y="230.7" class="st2" width="40.6" height="48.8"/>
	<rect x="519.5" y="216.2" class="st0" width="40.6" height="14.4"/>
	<rect x="573.2" y="390.5" class="st4" width="40.6" height="4.1"/>
	<rect x="573.2" y="330.8" class="st3" width="40.6" height="59.7"/>
	<rect x="573.2" y="281.9" class="st2" width="40.6" height="48.8"/>
	<rect x="573.2" y="237.3" class="st0" width="40.6" height="44.6"/>
	<rect x="626" y="350.3" class="st4" width="40.6" height="44.3"/>
	<rect x="626" y="259.6" class="st3" width="40.6" height="90.7"/>
	<rect x="626" y="250.5" class="st2" width="40.6" height="9.1"/>
	<rect x="626" y="239.4" class="st0" width="40.6" height="11.1"/>
	<rect x="732.5" y="338.7" class="st4" width="40.6" height="55.9"/>
	<rect x="732.5" y="326.3" class="st3" width="40.6" height="12.4"/>
	<rect x="732.5" y="310.4" class="st2" width="40.6" height="15.8"/>
	<rect x="732.5" y="306.6" class="st0" width="40.6" height="3.8"/>
	<rect x="786.1" y="347.1" class="st4" width="40.6" height="47.5"/>
	<rect x="786.1" y="332.5" class="st3" width="40.6" height="14.6"/>
	<rect x="786.1" y="318.4" class="st2" width="40.6" height="14.1"/>
	<rect x="786.1" y="316" class="st0" width="40.6" height="2.4"/>
	<rect x="891.8" y="389.3" class="st4" width="40.6" height="5.3"/>
	<rect x="945.4" y="379.8" class="st4" width="40.6" height="14.8"/>
	<rect x="945.4" y="330.6" class="st2" width="40.6" height="49.1"/>
	<rect x="999" y="390.9" class="st3" width="40.6" height="3.7"/>
	<rect x="999" y="384.3" class="st2" width="40.6" height="6.6"/>
	<rect x="999" y="349.3" class="st0" width="40.6" height="35"/>
	<rect x="1052.6" y="361.5" class="st2" width="40.6" height="33.1"/>
	<rect x="1106.3" y="383.8" class="st3" width="40.6" height="10.9"/>
	<rect x="1106.3" y="364.5" class="st0" width="40.6" height="19.2"/>
	<rect x="1159.1" y="381" class="st4" width="40.6" height="13.6"/>
	<rect x="1215.1" y="366.2" class="st4" width="40.6" height="28.4"/>
	<rect x="1215.1" y="353" class="st3" width="40.6" height="13.2"/>
	<rect x="1215.1" y="85" class="st2" width="40.6" height="268"/>
	<rect x="1215.1" y="42.6" class="st0" width="40.6" height="42.4"/>
	<rect x="1215.1" y="366.2" class="st4" width="40.6" height="28.4"/>
	<rect x="1159.1" y="379" class="st2" width="40.6" height="2.1"/>
	<rect x="1159.1" y="367.3" class="st0" width="40.6" height="11.6"/>
	<rect x="198.7" y="234" class="st4" width="40.6" height="160.6"/>
	<rect x="198.7" y="72.1" class="st0" width="40.6" height="6.6"/>
	<rect x="252.2" y="102.6" class="st0" width="40.6" height="77.7"/>
	<rect x="359.2" y="167.1" class="st3" width="40.6" height="91.8"/>
	<rect x="359.2" y="162.5" class="st2" width="40.6" height="4.6"/>
	<rect x="359.2" y="158.7" class="st0" width="40.6" height="3.8"/>
	<rect x="891.8" y="388.5" class="st3" width="40.6" height="0.8"/>
	<rect x="891.8" y="305" class="st0" width="40.6" height="82.6"/>
	<rect x="891.8" y="387.3" class="st3" width="40.6" height="2.1"/>
	<rect x="945.4" y="377.6" class="st3" width="40.6" height="2.1"/>
	<rect x="106.8" y="23" class="st5" width="27.5" height="26.7"/>
	<text transform="matrix(1 0 0 1 106.7622 35.3779)" class="st6 st7 st8">12</text>
	<rect x="106.8" y="84.4" class="st5" width="27.5" height="26.7"/>
	<text transform="matrix(1 0 0 1 106.7622 96.8096)" class="st6 st7 st8">10</text>
	<rect x="106.8" y="142.5" class="st5" width="27.5" height="26.7"/>
	<text transform="matrix(1 0 0 1 106.7622 154.9277)" class="st6 st7 st8">  8</text>
	<rect x="109" y="204" class="st5" width="27.5" height="26.7"/>
	<text transform="matrix(1 0 0 1 108.9565 216.3398)" class="st6 st7 st8">  6</text>
	<rect x="107.8" y="266.1" class="st5" width="27.5" height="26.7"/>
	<text transform="matrix(1 0 0 1 107.7949 278.4941)" class="st6 st7 st8">  4</text>
	<rect x="107.8" y="328.2" class="st5" width="27.5" height="26.7"/>
	<text transform="matrix(1 0 0 1 107.7949 340.5449)" class="st6 st7 st8">  2</text>
	<rect x="109" y="388" class="st5" width="27.5" height="26.7"/>
	<text transform="matrix(1 0 0 1 108.9565 400.3955)" class="st6 st7 st8">  0</text>
	<rect x="149.4" y="51.8" class="st5" width="37.4" height="16.4"/>
	<text transform="matrix(1 0 0 1 149.4497 62.6768)" class="st6 st7 st9">10.6</text>
	<rect x="204.3" y="51.8" class="st5" width="37.4" height="16.4"/>
	<text transform="matrix(1 0 0 1 204.272 62.5879)" class="st6 st7 st9">10.6</text>
	<rect x="262.1" y="76.2" class="st5" width="37.4" height="16.4"/>
	<text transform="matrix(1 0 0 1 262.0928 87.0508)" class="st6 st7 st9">9.6</text>
	<rect x="366" y="134.3" class="st5" width="37.4" height="16.4"/>
	<text transform="matrix(1 0 0 1 365.9717 145.168)" class="st6 st7 st9">7.7</text>
	<rect x="420" y="137.9" class="st5" width="37.4" height="16.4"/>
	<text transform="matrix(1 0 0 1 420.0264 148.71)" class="st6 st7 st9">7.4</text>
	<rect x="530.6" y="188.1" class="st5" width="37.4" height="16.4"/>
	<text transform="matrix(1 0 0 1 530.6396 198.9912)" class="st6 st7 st9">5.9</text>
	<rect x="581.5" y="208.5" class="st5" width="37.4" height="16.4"/>
	<text transform="matrix(1 0 0 1 581.4775 219.3018)" class="st6 st7 st9">5.2</text>
	<rect x="635.9" y="213.9" class="st5" width="37.4" height="16.4"/>
	<text transform="matrix(1 0 0 1 635.8662 224.7744)" class="st6 st7 st9">5.1</text>
	<rect x="742.3" y="281.9" class="st5" width="37.4" height="16.4"/>
	<text transform="matrix(1 0 0 1 742.3193 292.7021)" class="st6 st7 st9">2.9</text>
	<rect x="795.2" y="290.1" class="st5" width="37.4" height="16.4"/>
	<text transform="matrix(1 0 0 1 795.2051 300.9141)" class="st6 st7 st9">2.6</text>
	<rect x="902.1" y="281.5" class="st5" width="37.4" height="16.4"/>
	<text transform="matrix(1 0 0 1 902.1328 292.3379)" class="st6 st7 st9">2.9</text>
	<rect x="955" y="307.8" class="st5" width="37.4" height="16.4"/>
	<text transform="matrix(1 0 0 1 954.9727 318.6162)" class="st6 st7 st9">2.1</text>
	<rect x="1009.7" y="326.2" class="st5" width="37.4" height="16.4"/>
	<text transform="matrix(1 0 0 1 1009.6484 337.0605)" class="st6 st7 st9">1.5</text>
	<rect x="1061.3" y="338.1" class="st5" width="37.4" height="16.4"/>
	<text transform="matrix(1 0 0 1 1061.2822 348.8916)" class="st6 st7 st9">1.1</text>
	<rect x="1116.4" y="346.3" class="st5" width="37.4" height="16.4"/>
	<text transform="matrix(1 0 0 1 1116.4082 357.1035)" class="st6 st7 st9">1.0</text>
	<rect x="1167.8" y="348.8" class="st5" width="37.4" height="16.4"/>
	<text transform="matrix(1 0 0 1 1167.7744 359.6201)" class="st6 st7 st9">0.9</text>
	<rect x="1222.9" y="19.8" class="st5" width="37.4" height="16.4"/>
	<text transform="matrix(1 0 0 1 1222.9268 30.6162)" class="st6 st7 st9">11.6</text>
	<rect x="144.2" y="405.7" class="st5" width="51.6" height="31.4"/>
	<text transform="matrix(1 0 0 1 144.1992 415.002)" class="st6 st10 st11">Toyota</text>
	<rect x="210.6" y="405.7" class="st5" width="43.9" height="31.4"/>
	<text transform="matrix(1 0 0 1 210.564 415.002)" class="st12 st10 st11">VW</text>
	<rect x="258.8" y="404.7" class="st5" width="43.9" height="31.4"/>
	<text transform="matrix(1 0 0 1 258.7612 413.9834)" class="st6 st10 st11">RNM</text>
	<rect x="351.9" y="404.7" class="st5" width="56" height="31.4"/>
	<text transform="matrix(1 0 0 1 351.8828 413.9834)" class="st12 st10 st11">FCA+PSA</text>
	<rect x="411.9" y="403" class="st5" width="56" height="31.4"/>
	<text transform="matrix(1 0 0 1 411.8496 412.2627)" class="st6 st10 st11">Hyundai</text>
	<rect x="530.6" y="404.7" class="st5" width="28" height="31.4"/>
	<text transform="matrix(1 0 0 1 530.6396 413.9834)" class="st6 st10 st11">GM</text>
	<rect x="575.7" y="404.7" class="st5" width="38.1" height="31.4"/>
	<text transform="matrix(1 0 0 1 575.7129 413.9834)" class="st6 st10 st11">Honda</text>
	<rect x="633.7" y="404.7" class="st5" width="38.1" height="31.4"/>
	<text transform="matrix(1 0 0 1 633.7178 413.9834)" class="st12 st10 st11">Ford</text>
	<rect x="786.1" y="404.7" class="st5" width="44.7" height="31.4"/>
	<text transform="matrix(1 0 0 1 793.7046 413.9834)" class="st6 st10 st11">BMW</text>
	<rect x="890.8" y="404.7" class="st5" width="44.7" height="31.4"/>
	<text transform="matrix(1 0 0 1 894.9165 413.9834)" class="st6 st10 st11">Suzuki</text>
	<rect x="943.3" y="404.7" class="st5" width="44.7" height="31.4"/>
	<text transform="matrix(1 0 0 1 950.5 413.9834)" class="st6 st10 st11">Geely</text>
	<rect x="997" y="404.7" class="st5" width="44.7" height="31.4"/>
	<text transform="matrix(1 0 0 1 1000.6289 413.9834)" class="st6 st10 st11">Mazda</text>
	<rect x="1044.9" y="404.7" class="st5" width="57.6" height="31.4"/>
	<text transform="matrix(1 0 0 1 1045.3135 413.9834)" class="st6 st10 st11">Great Wall</text>
	<rect x="1099.7" y="404.7" class="st5" width="57.6" height="31.4"/>
	<text transform="matrix(1 0 0 1 1109.0098 413.9834)" class="st6 st10 st11">Subaru</text>
	<rect x="1152.5" y="404.7" class="st5" width="57.6" height="31.4"/>
	<text transform="matrix(1 0 0 1 1168.8398 413.9834)" class="st6 st10 st11">Tata</text>
	<rect x="1206.6" y="404.7" class="st5" width="57.6" height="31.4"/>
	<text transform="matrix(1 0 0 1 1217.1553 413.9834)" class="st6 st10 st11">Others</text>
	<rect x="121.5" y="449.8" class="st4" width="9.9" height="8.4"/>
	<rect x="141.3" y="449.8" class="st5" width="74.3" height="31.4"/>
	<text transform="matrix(1 0 0 1 141.2593 459.0908)" class="st6 st10 st11">EMEA</text>
	<rect x="197.7" y="449.8" class="st3" width="9.9" height="8.4"/>
	<rect x="299.4" y="449.8" class="st2" width="9.9" height="8.4"/>
	<rect x="319.1" y="449.8" class="st5" width="74.3" height="31.4"/>
	<text transform="matrix(1 0 0 1 319.1362 459.0908)" class="st6 st10 st11">CHINA</text>
	<rect x="370.1" y="449.8" class="st0" width="9.9" height="8.4"/>
	<rect x="389.9" y="449.8" class="st5" width="74.3" height="31.4"/>
	<text transform="matrix(1 0 0 1 389.8486 459.0908)" class="st6 st10 st11">OTHER APAC </text>
	<rect x="217.5" y="449.8" class="st5" width="74.3" height="31.4"/>
	<text transform="matrix(1 0 0 1 217.4678 459.0908)" class="st6 st10 st11">AMERICAS</text>
	<rect x="120.3" y="467.9" class="st5" width="244.4" height="84.5"/>
	<text transform="matrix(1 0 0 1 510.8332 38.4014)" class="st2 st13 st14">2019 PRODUCTION BY REGION (MILLION UNITS)</text>
</g>
</svg>
