<?xml version="1.0" encoding="utf-8"?>
<!-- Generator: Adobe Illustrator 24.1.2, SVG Export Plug-In . SVG Version: 6.00 Build 0)  -->
<svg version="1.1" id="Layer_1" xmlns="http://www.w3.org/2000/svg" xmlns:xlink="http://www.w3.org/1999/xlink" x="0px" y="0px"
	 viewBox="0 0 550 447" style="enable-background:new 0 0 550 447;" xml:space="preserve">
<style type="text/css">
	.st0{fill:#2A9FD9;}
	.st1{fill:none;stroke:#989898;stroke-miterlimit:10;}
	.st2{enable-background:new    ;}
	.st3{fill:#4E4E4E;}
	.st4{fill:#2367B1;}
	.st5{fill:#FFFFFF;}
	.st6{fill:none;stroke:#2367B1;stroke-width:3;stroke-linecap:round;stroke-miterlimit:10;}
</style>
<rect x="239" y="141.7" class="st0" width="29" height="242.2"/>
<rect x="278.5" y="40.3" class="st0" width="29" height="343.5"/>
<rect x="317.9" y="93" class="st0" width="29" height="290.9"/>
<rect x="436.3" y="143.6" class="st0" width="29" height="240.3"/>
<rect x="475.8" y="198.4" class="st0" width="29" height="185.5"/>
<line class="st1" x1="30.3" y1="383.9" x2="518" y2="383.9"/>
<line class="st1" x1="30.8" y1="421.3" x2="30.8" y2="383.5"/>
<line class="st1" x1="193" y1="421.3" x2="193" y2="383.5"/>
<line class="st1" x1="355.3" y1="421.3" x2="355.3" y2="383.5"/>
<line class="st1" x1="517.5" y1="421.3" x2="517.5" y2="383.5"/>
<g class="st2">
	<path class="st3" d="M55.5,397.9c0,0.9-0.1,1.6-0.4,2.3c-0.3,0.6-0.7,1.2-1.2,1.6l1.6,1.2l-1.2,1.1l-2-1.6c-0.2,0-0.5,0.1-0.7,0.1
		c-0.8,0-1.5-0.2-2.1-0.6c-0.6-0.4-1.1-0.9-1.4-1.6c-0.3-0.7-0.5-1.5-0.5-2.4v-0.5c0-0.9,0.2-1.7,0.5-2.5c0.3-0.7,0.8-1.2,1.4-1.6
		s1.3-0.6,2.1-0.6c0.8,0,1.5,0.2,2.1,0.6s1.1,0.9,1.4,1.6c0.3,0.7,0.5,1.5,0.5,2.4V397.9z M53.5,397.5c0-1-0.2-1.7-0.5-2.2
		s-0.9-0.8-1.5-0.8c-0.7,0-1.2,0.3-1.5,0.8c-0.3,0.5-0.5,1.2-0.5,2.2v0.5c0,1,0.2,1.7,0.5,2.2s0.9,0.8,1.5,0.8
		c0.7,0,1.2-0.3,1.5-0.8c0.3-0.5,0.5-1.3,0.5-2.2V397.5z"/>
	<path class="st3" d="M61.2,402.4h-1.9v-7.2l-2.2,0.7v-1.5L61,393h0.2L61.2,402.4L61.2,402.4z"/>
</g>
<g class="st2">
	<path class="st3" d="M95.2,397.9c0,0.9-0.1,1.6-0.4,2.3c-0.3,0.6-0.7,1.2-1.2,1.6l1.6,1.2l-1.2,1.1l-2-1.6c-0.2,0-0.5,0.1-0.7,0.1
		c-0.8,0-1.5-0.2-2.1-0.6c-0.6-0.4-1.1-0.9-1.4-1.6c-0.3-0.7-0.5-1.5-0.5-2.4v-0.5c0-0.9,0.2-1.7,0.5-2.5c0.3-0.7,0.8-1.2,1.4-1.6
		s1.3-0.6,2.1-0.6s1.5,0.2,2.1,0.6c0.6,0.4,1.1,0.9,1.4,1.6c0.3,0.7,0.5,1.5,0.5,2.4C95.2,397.5,95.2,397.9,95.2,397.9z M93.2,397.5
		c0-1-0.2-1.7-0.5-2.2s-0.9-0.8-1.5-0.8s-1.2,0.3-1.5,0.8c-0.3,0.5-0.5,1.2-0.5,2.2v0.5c0,1,0.2,1.7,0.5,2.2s0.9,0.8,1.5,0.8
		c0.7,0,1.2-0.3,1.5-0.8c0.3-0.5,0.5-1.3,0.5-2.2C93.2,397.9,93.2,397.5,93.2,397.5z"/>
	<path class="st3" d="M102.9,402.4h-6.4v-1.3l3-3.2c0.4-0.5,0.7-0.9,0.9-1.2s0.3-0.7,0.3-1c0-0.4-0.1-0.8-0.3-1
		c-0.2-0.2-0.5-0.4-0.9-0.4c-0.4,0-0.8,0.1-1,0.4c-0.2,0.3-0.4,0.7-0.4,1.1h-1.9c0-0.6,0.1-1.1,0.4-1.6c0.3-0.5,0.7-0.8,1.2-1.1
		c0.5-0.3,1.1-0.4,1.7-0.4c1,0,1.7,0.2,2.3,0.7s0.8,1.1,0.8,2c0,0.5-0.1,0.9-0.4,1.4s-0.7,1-1.2,1.7l-2.1,2.3h4.1L102.9,402.4
		L102.9,402.4z"/>
</g>
<g class="st2">
	<path class="st3" d="M105.9,436.1h-6.4v-1.3l3-3.2c0.4-0.5,0.7-0.9,0.9-1.2s0.3-0.7,0.3-1c0-0.4-0.1-0.8-0.3-1
		c-0.2-0.2-0.5-0.4-0.9-0.4c-0.4,0-0.8,0.1-1,0.4c-0.2,0.3-0.4,0.7-0.4,1.1h-1.9c0-0.6,0.1-1.1,0.4-1.6s0.7-0.8,1.2-1.1
		c0.5-0.3,1.1-0.4,1.7-0.4c1,0,1.7,0.2,2.3,0.7c0.5,0.5,0.8,1.1,0.8,2c0,0.5-0.1,0.9-0.4,1.4s-0.7,1-1.2,1.7l-2.1,2.3h4.1
		L105.9,436.1L105.9,436.1z"/>
	<path class="st3" d="M113.4,432.3c0,1.3-0.3,2.3-0.8,3s-1.3,1-2.4,1c-1,0-1.8-0.3-2.3-1c-0.6-0.7-0.8-1.6-0.8-2.9v-1.7
		c0-1.3,0.3-2.3,0.8-3s1.3-1,2.3-1s1.8,0.3,2.3,1s0.8,1.6,0.8,2.9L113.4,432.3L113.4,432.3z M111.5,430.4c0-0.8-0.1-1.4-0.3-1.7
		s-0.6-0.5-1-0.5c-0.4,0-0.8,0.2-1,0.5c-0.2,0.3-0.3,0.9-0.3,1.6v2.3c0,0.8,0.1,1.3,0.3,1.7s0.6,0.6,1,0.6s0.8-0.2,1-0.5
		c0.2-0.4,0.3-0.9,0.3-1.6L111.5,430.4L111.5,430.4z"/>
	<path class="st3" d="M119.2,436.1h-1.9v-7.2l-2.2,0.7v-1.5l3.9-1.4h0.2L119.2,436.1L119.2,436.1z"/>
	<path class="st3" d="M128.6,427.8l-3.6,8.4h-2l3.7-7.9H122v-1.5h6.6V427.8L128.6,427.8z"/>
</g>
<g class="st2">
	<path class="st3" d="M266.6,436.1h-6.5v-1.3l3-3.2c0.4-0.5,0.7-0.9,0.9-1.2c0.2-0.3,0.3-0.7,0.3-1c0-0.4-0.1-0.8-0.3-1
		c-0.2-0.2-0.5-0.4-0.9-0.4c-0.4,0-0.8,0.1-1,0.4c-0.2,0.3-0.4,0.7-0.4,1.1H260c0-0.6,0.1-1.1,0.4-1.6c0.3-0.5,0.7-0.8,1.2-1.1
		s1.1-0.4,1.7-0.4c1,0,1.7,0.2,2.3,0.7s0.8,1.1,0.8,2c0,0.5-0.1,0.9-0.4,1.4s-0.6,1-1.2,1.7l-2.1,2.3h4V436.1L266.6,436.1z"/>
	<path class="st3" d="M274.1,432.3c0,1.3-0.3,2.3-0.8,3c-0.5,0.7-1.3,1-2.4,1c-1,0-1.8-0.3-2.4-1s-0.8-1.6-0.8-2.9v-1.7
		c0-1.3,0.3-2.3,0.8-3s1.3-1,2.4-1s1.8,0.3,2.4,1s0.8,1.6,0.8,2.9L274.1,432.3L274.1,432.3z M272.2,430.4c0-0.8-0.1-1.4-0.3-1.7
		s-0.5-0.5-1-0.5c-0.4,0-0.8,0.2-1,0.5c-0.2,0.3-0.3,0.9-0.3,1.6v2.3c0,0.8,0.1,1.3,0.3,1.7s0.5,0.6,1,0.6s0.8-0.2,1-0.5
		c0.2-0.4,0.3-0.9,0.3-1.6L272.2,430.4L272.2,430.4z"/>
	<path class="st3" d="M279.9,436.1H278v-7.2l-2.2,0.7v-1.5l3.9-1.4h0.2L279.9,436.1L279.9,436.1z"/>
	<path class="st3" d="M289.1,429.3c0,0.5-0.1,0.9-0.3,1.2c-0.2,0.4-0.5,0.6-1,0.9c0.5,0.2,0.8,0.5,1.1,0.9c0.3,0.4,0.4,0.8,0.4,1.4
		c0,0.8-0.3,1.5-0.9,2c-0.6,0.5-1.3,0.7-2.3,0.7s-1.8-0.2-2.3-0.7c-0.6-0.5-0.9-1.1-0.9-2c0-0.5,0.1-1,0.4-1.4
		c0.3-0.4,0.6-0.7,1.1-0.9c-0.4-0.2-0.7-0.5-0.9-0.9s-0.3-0.8-0.3-1.2c0-0.8,0.3-1.4,0.8-1.9c0.5-0.5,1.3-0.7,2.2-0.7
		s1.6,0.2,2.2,0.7C288.8,427.8,289.1,428.4,289.1,429.3z M287.4,433.4c0-0.4-0.1-0.7-0.4-1c-0.2-0.2-0.6-0.4-1-0.4
		c-0.4,0-0.7,0.1-1,0.4c-0.2,0.2-0.4,0.6-0.4,1c0,0.4,0.1,0.7,0.4,1c0.2,0.2,0.6,0.4,1,0.4s0.7-0.1,1-0.4
		C287.3,434.2,287.4,433.9,287.4,433.4z M287.2,429.3c0-0.4-0.1-0.7-0.3-0.9c-0.2-0.2-0.5-0.3-0.8-0.3c-0.4,0-0.6,0.1-0.8,0.3
		s-0.3,0.5-0.3,0.9s0.1,0.7,0.3,0.9s0.5,0.3,0.8,0.3s0.6-0.1,0.8-0.3C287.1,430,287.2,429.7,287.2,429.3z"/>
</g>
<g class="st2">
	<path class="st3" d="M420.6,436.1h-6.5v-1.3l3-3.2c0.4-0.5,0.7-0.9,0.9-1.2c0.2-0.3,0.3-0.7,0.3-1c0-0.4-0.1-0.8-0.3-1
		c-0.2-0.2-0.5-0.4-0.9-0.4c-0.4,0-0.8,0.1-1,0.4c-0.2,0.3-0.4,0.7-0.4,1.1H414c0-0.6,0.1-1.1,0.4-1.6s0.7-0.8,1.2-1.1
		s1.1-0.4,1.7-0.4c1,0,1.7,0.2,2.3,0.7s0.8,1.1,0.8,2c0,0.5-0.1,0.9-0.4,1.4s-0.6,1-1.2,1.7l-2.1,2.3h4V436.1L420.6,436.1z"/>
	<path class="st3" d="M428.1,432.3c0,1.3-0.3,2.3-0.8,3s-1.3,1-2.4,1c-1,0-1.8-0.3-2.4-1c-0.5-0.7-0.8-1.6-0.8-2.9v-1.7
		c0-1.3,0.3-2.3,0.8-3c0.5-0.7,1.3-1,2.4-1s1.8,0.3,2.4,1s0.8,1.6,0.8,2.9L428.1,432.3L428.1,432.3z M426.2,430.4
		c0-0.8-0.1-1.4-0.3-1.7s-0.5-0.5-1-0.5c-0.4,0-0.8,0.2-1,0.5c-0.2,0.3-0.3,0.9-0.3,1.6v2.3c0,0.8,0.1,1.3,0.3,1.7s0.5,0.6,1,0.6
		s0.8-0.2,1-0.5c0.2-0.4,0.3-0.9,0.3-1.6L426.2,430.4L426.2,430.4z"/>
	<path class="st3" d="M433.9,436.1H432v-7.2l-2.2,0.7v-1.5l3.9-1.4h0.2L433.9,436.1L433.9,436.1z"/>
	<path class="st3" d="M441.3,432.4c-0.5,0.5-1.1,0.7-1.7,0.7c-0.8,0-1.5-0.3-2-0.9c-0.5-0.6-0.8-1.3-0.8-2.3c0-0.6,0.1-1.2,0.4-1.7
		c0.3-0.5,0.6-0.9,1.1-1.2c0.5-0.3,1-0.4,1.6-0.4c0.6,0,1.2,0.1,1.6,0.5c0.5,0.3,0.9,0.8,1.1,1.3c0.3,0.6,0.4,1.2,0.4,2v0.7
		c0,1.6-0.4,2.8-1.2,3.7c-0.8,0.9-1.9,1.4-3.3,1.4l-0.5,0v-1.6l0.4,0C440.3,434.6,441.2,433.9,441.3,432.4z M440.1,431.7
		c0.3,0,0.6-0.1,0.8-0.2c0.2-0.1,0.4-0.3,0.5-0.6v-0.8c0-0.6-0.1-1.1-0.4-1.5s-0.6-0.5-1-0.5c-0.4,0-0.7,0.2-0.9,0.5
		c-0.2,0.3-0.4,0.8-0.4,1.3s0.1,0.9,0.4,1.3C439.3,431.5,439.7,431.7,440.1,431.7z"/>
</g>
<g class="st2">
	<path class="st3" d="M134.9,397.9c0,0.9-0.1,1.6-0.4,2.3c-0.3,0.6-0.7,1.2-1.2,1.6l1.6,1.2l-1.2,1.1l-2-1.6c-0.2,0-0.5,0.1-0.7,0.1
		c-0.8,0-1.5-0.2-2.1-0.6c-0.6-0.4-1.1-0.9-1.4-1.6c-0.3-0.7-0.5-1.5-0.5-2.4v-0.5c0-0.9,0.2-1.7,0.5-2.5c0.3-0.7,0.8-1.2,1.4-1.6
		c0.6-0.4,1.3-0.6,2.1-0.6s1.5,0.2,2.1,0.6s1.1,0.9,1.4,1.6c0.3,0.7,0.5,1.5,0.5,2.4V397.9L134.9,397.9z M132.9,397.5
		c0-1-0.2-1.7-0.5-2.2s-0.9-0.8-1.5-0.8s-1.1,0.3-1.5,0.8c-0.4,0.5-0.5,1.2-0.5,2.2v0.5c0,1,0.2,1.7,0.5,2.2
		c0.4,0.5,0.9,0.8,1.5,0.8c0.6,0,1.1-0.3,1.5-0.8c0.4-0.5,0.5-1.3,0.5-2.2L132.9,397.5L132.9,397.5z"/>
	<path class="st3" d="M138,396.9h1c0.5,0,0.8-0.1,1.1-0.4s0.3-0.5,0.3-1c0-0.4-0.1-0.7-0.3-0.9s-0.5-0.3-0.9-0.3
		c-0.4,0-0.6,0.1-0.9,0.3s-0.4,0.5-0.4,0.8H136c0-0.5,0.1-0.9,0.4-1.3c0.3-0.4,0.6-0.7,1.1-0.9c0.5-0.2,1-0.3,1.6-0.3
		c1,0,1.8,0.2,2.3,0.7c0.6,0.5,0.9,1.1,0.9,2c0,0.4-0.1,0.8-0.4,1.2c-0.3,0.4-0.6,0.6-1,0.8c0.5,0.2,0.9,0.5,1.2,0.9
		s0.4,0.8,0.4,1.3c0,0.8-0.3,1.5-0.9,2c-0.6,0.5-1.4,0.8-2.4,0.8c-0.9,0-1.7-0.2-2.3-0.8s-0.9-1.1-0.9-2h1.9c0,0.4,0.1,0.6,0.4,0.9
		c0.3,0.2,0.6,0.3,1,0.3c0.4,0,0.8-0.1,1-0.4c0.3-0.2,0.4-0.5,0.4-0.9c0-0.9-0.5-1.4-1.6-1.4h-1L138,396.9L138,396.9L138,396.9z"/>
</g>
<g class="st2">
	<path class="st3" d="M174.6,397.9c0,0.9-0.1,1.6-0.4,2.3c-0.3,0.6-0.7,1.2-1.2,1.6l1.6,1.2l-1.2,1.1l-2-1.6c-0.2,0-0.5,0.1-0.7,0.1
		c-0.8,0-1.5-0.2-2.1-0.6c-0.6-0.4-1.1-0.9-1.4-1.6c-0.3-0.7-0.5-1.5-0.5-2.4v-0.5c0-0.9,0.2-1.7,0.5-2.5c0.3-0.7,0.8-1.2,1.4-1.6
		c0.6-0.4,1.3-0.6,2.1-0.6c0.8,0,1.5,0.2,2.1,0.6s1.1,0.9,1.4,1.6c0.3,0.7,0.5,1.5,0.5,2.4V397.9L174.6,397.9z M172.7,397.5
		c0-1-0.2-1.7-0.5-2.2s-0.9-0.8-1.5-0.8s-1.1,0.3-1.5,0.8c-0.4,0.5-0.5,1.2-0.5,2.2v0.5c0,1,0.2,1.7,0.5,2.2
		c0.4,0.5,0.9,0.8,1.5,0.8c0.6,0,1.1-0.3,1.5-0.8c0.4-0.5,0.5-1.3,0.5-2.2L172.7,397.5L172.7,397.5z"/>
	<path class="st3" d="M181.4,398.9h1.1v1.5h-1.1v2h-1.9v-2h-3.9l-0.1-1.2l3.9-6.2h1.9L181.4,398.9L181.4,398.9z M177.4,398.9h2.1
		v-3.3l-0.1,0.2L177.4,398.9z"/>
</g>
<g class="st2">
	<path class="st3" d="M214.4,397.9c0,0.9-0.1,1.6-0.4,2.3c-0.3,0.6-0.7,1.2-1.2,1.6l1.6,1.2l-1.2,1.1l-2-1.6c-0.2,0-0.5,0.1-0.7,0.1
		c-0.8,0-1.5-0.2-2.1-0.6c-0.6-0.4-1.1-0.9-1.4-1.6c-0.3-0.7-0.5-1.5-0.5-2.4v-0.5c0-0.9,0.2-1.7,0.5-2.5c0.3-0.7,0.8-1.2,1.4-1.6
		c0.6-0.4,1.3-0.6,2.1-0.6c0.8,0,1.5,0.2,2.1,0.6s1.1,0.9,1.4,1.6c0.3,0.7,0.5,1.5,0.5,2.4V397.9L214.4,397.9z M212.4,397.5
		c0-1-0.2-1.7-0.5-2.2s-0.9-0.8-1.5-0.8s-1.1,0.3-1.5,0.8c-0.4,0.5-0.5,1.2-0.5,2.2v0.5c0,1,0.2,1.7,0.5,2.2
		c0.4,0.5,0.9,0.8,1.5,0.8c0.6,0,1.1-0.3,1.5-0.8c0.4-0.5,0.5-1.3,0.5-2.2L212.4,397.5L212.4,397.5z"/>
	<path class="st3" d="M220.1,402.4h-1.9v-7.2l-2.2,0.7v-1.5l3.9-1.4h0.2L220.1,402.4L220.1,402.4z"/>
</g>
<g class="st2">
	<path class="st3" d="M254.1,397.9c0,0.9-0.1,1.6-0.4,2.3c-0.3,0.6-0.7,1.2-1.2,1.6l1.6,1.2l-1.2,1.1l-2-1.6c-0.2,0-0.5,0.1-0.7,0.1
		c-0.8,0-1.5-0.2-2.1-0.6c-0.6-0.4-1.1-0.9-1.4-1.6c-0.3-0.7-0.5-1.5-0.5-2.4v-0.5c0-0.9,0.2-1.7,0.5-2.5c0.3-0.7,0.8-1.2,1.4-1.6
		c0.6-0.4,1.3-0.6,2.1-0.6s1.5,0.2,2.1,0.6s1.1,0.9,1.4,1.6c0.3,0.7,0.5,1.5,0.5,2.4V397.9L254.1,397.9z M252.1,397.5
		c0-1-0.2-1.7-0.5-2.2s-0.9-0.8-1.5-0.8s-1.1,0.3-1.5,0.8c-0.4,0.5-0.5,1.2-0.5,2.2v0.5c0,1,0.2,1.7,0.5,2.2
		c0.4,0.5,0.9,0.8,1.5,0.8c0.6,0,1.1-0.3,1.5-0.8c0.4-0.5,0.5-1.3,0.5-2.2L252.1,397.5L252.1,397.5z"/>
	<path class="st3" d="M261.7,402.4h-6.4v-1.3l3-3.2c0.4-0.5,0.7-0.9,0.9-1.2c0.2-0.3,0.3-0.7,0.3-1c0-0.4-0.1-0.8-0.3-1
		c-0.2-0.2-0.5-0.4-0.9-0.4c-0.4,0-0.8,0.1-1,0.4c-0.2,0.3-0.4,0.7-0.4,1.1h-1.9c0-0.6,0.1-1.1,0.4-1.6s0.7-0.8,1.2-1.1
		c0.5-0.3,1.1-0.4,1.7-0.4c1,0,1.7,0.2,2.3,0.7s0.8,1.1,0.8,2c0,0.5-0.1,0.9-0.4,1.4s-0.6,1-1.2,1.7l-2.1,2.3h4V402.4L261.7,402.4z"
		/>
</g>
<g class="st2">
	<path class="st3" d="M293.8,397.9c0,0.9-0.1,1.6-0.4,2.3c-0.3,0.6-0.7,1.2-1.2,1.6l1.6,1.2l-1.2,1.1l-2-1.6c-0.2,0-0.5,0.1-0.7,0.1
		c-0.8,0-1.5-0.2-2.1-0.6c-0.6-0.4-1.1-0.9-1.4-1.6c-0.3-0.7-0.5-1.5-0.5-2.4v-0.5c0-0.9,0.2-1.7,0.5-2.5c0.3-0.7,0.8-1.2,1.4-1.6
		c0.6-0.4,1.3-0.6,2.1-0.6s1.5,0.2,2.1,0.6c0.6,0.4,1.1,0.9,1.4,1.6c0.3,0.7,0.5,1.5,0.5,2.4L293.8,397.9L293.8,397.9z M291.8,397.5
		c0-1-0.2-1.7-0.5-2.2s-0.9-0.8-1.5-0.8s-1.1,0.3-1.5,0.8c-0.4,0.5-0.5,1.2-0.5,2.2v0.5c0,1,0.2,1.7,0.5,2.2
		c0.4,0.5,0.9,0.8,1.5,0.8c0.6,0,1.1-0.3,1.5-0.8s0.5-1.3,0.5-2.2L291.8,397.5L291.8,397.5z"/>
	<path class="st3" d="M296.9,396.9h1c0.5,0,0.8-0.1,1-0.4c0.2-0.2,0.3-0.5,0.3-1c0-0.4-0.1-0.7-0.3-0.9s-0.5-0.3-0.9-0.3
		c-0.4,0-0.6,0.1-0.9,0.3c-0.2,0.2-0.4,0.5-0.4,0.8h-1.9c0-0.5,0.1-0.9,0.4-1.3c0.3-0.4,0.6-0.7,1.1-0.9c0.5-0.2,1-0.3,1.6-0.3
		c1,0,1.8,0.2,2.3,0.7c0.6,0.5,0.9,1.1,0.9,2c0,0.4-0.1,0.8-0.4,1.2c-0.3,0.4-0.6,0.6-1,0.8c0.5,0.2,0.9,0.5,1.2,0.9
		c0.3,0.4,0.4,0.8,0.4,1.3c0,0.8-0.3,1.5-0.9,2c-0.6,0.5-1.4,0.8-2.4,0.8c-0.9,0-1.7-0.2-2.3-0.8c-0.6-0.5-0.9-1.1-0.9-2h1.9
		c0,0.4,0.1,0.6,0.4,0.9c0.3,0.2,0.6,0.3,1,0.3c0.4,0,0.8-0.1,1-0.4c0.3-0.2,0.4-0.5,0.4-0.9c0-0.9-0.5-1.4-1.5-1.4h-1L296.9,396.9
		L296.9,396.9L296.9,396.9z"/>
</g>
<g class="st2">
	<path class="st3" d="M333.5,397.9c0,0.9-0.1,1.6-0.4,2.3c-0.3,0.6-0.7,1.2-1.2,1.6l1.6,1.2l-1.2,1.1l-2-1.6c-0.2,0-0.5,0.1-0.7,0.1
		c-0.8,0-1.5-0.2-2.1-0.6c-0.6-0.4-1.1-0.9-1.4-1.6c-0.3-0.7-0.5-1.5-0.5-2.4v-0.5c0-0.9,0.2-1.7,0.5-2.5c0.3-0.7,0.8-1.2,1.4-1.6
		c0.6-0.4,1.3-0.6,2.1-0.6c0.8,0,1.5,0.2,2.1,0.6c0.6,0.4,1.1,0.9,1.4,1.6c0.3,0.7,0.5,1.5,0.5,2.4L333.5,397.9L333.5,397.9z
		 M331.5,397.5c0-1-0.2-1.7-0.5-2.2s-0.9-0.8-1.5-0.8c-0.6,0-1.1,0.3-1.5,0.8c-0.4,0.5-0.5,1.2-0.5,2.2v0.5c0,1,0.2,1.7,0.5,2.2
		c0.4,0.5,0.9,0.8,1.5,0.8c0.6,0,1.1-0.3,1.5-0.8c0.4-0.5,0.5-1.3,0.5-2.2L331.5,397.5L331.5,397.5z"/>
	<path class="st3" d="M340.3,398.9h1.1v1.5h-1.1v2h-1.9v-2h-3.9l-0.1-1.2l3.9-6.2h1.9L340.3,398.9L340.3,398.9z M336.3,398.9h2.1
		v-3.3l-0.1,0.2L336.3,398.9z"/>
</g>
<g class="st2">
	<path class="st3" d="M373.2,397.9c0,0.9-0.1,1.6-0.4,2.3c-0.3,0.6-0.7,1.2-1.2,1.6l1.6,1.2l-1.2,1.1l-2-1.6c-0.2,0-0.5,0.1-0.7,0.1
		c-0.8,0-1.5-0.2-2.1-0.6c-0.6-0.4-1.1-0.9-1.4-1.6c-0.3-0.7-0.5-1.5-0.5-2.4v-0.5c0-0.9,0.2-1.7,0.5-2.5c0.3-0.7,0.8-1.2,1.4-1.6
		c0.6-0.4,1.3-0.6,2.1-0.6c0.8,0,1.5,0.2,2.1,0.6c0.6,0.4,1.1,0.9,1.4,1.6c0.3,0.7,0.5,1.5,0.5,2.4L373.2,397.9L373.2,397.9z
		 M371.3,397.5c0-1-0.2-1.7-0.5-2.2s-0.9-0.8-1.5-0.8s-1.1,0.3-1.5,0.8c-0.4,0.5-0.5,1.2-0.5,2.2v0.5c0,1,0.2,1.7,0.5,2.2
		c0.4,0.5,0.9,0.8,1.5,0.8c0.6,0,1.1-0.3,1.5-0.8c0.4-0.5,0.5-1.3,0.5-2.2L371.3,397.5L371.3,397.5z"/>
	<path class="st3" d="M379,402.4h-1.9v-7.2l-2.2,0.7v-1.5l3.9-1.4h0.2L379,402.4L379,402.4z"/>
</g>
<g class="st2">
	<path class="st3" d="M413,397.9c0,0.9-0.1,1.6-0.4,2.3c-0.3,0.6-0.7,1.2-1.2,1.6l1.6,1.2l-1.2,1.1l-2-1.6c-0.2,0-0.5,0.1-0.7,0.1
		c-0.8,0-1.5-0.2-2.1-0.6c-0.6-0.4-1.1-0.9-1.4-1.6c-0.3-0.7-0.5-1.5-0.5-2.4v-0.5c0-0.9,0.2-1.7,0.5-2.5c0.3-0.7,0.8-1.2,1.4-1.6
		c0.6-0.4,1.3-0.6,2.1-0.6c0.8,0,1.5,0.2,2.1,0.6c0.6,0.4,1.1,0.9,1.4,1.6c0.3,0.7,0.5,1.5,0.5,2.4L413,397.9L413,397.9z M411,397.5
		c0-1-0.2-1.7-0.5-2.2s-0.9-0.8-1.5-0.8c-0.6,0-1.1,0.3-1.5,0.8c-0.4,0.5-0.5,1.2-0.5,2.2v0.5c0,1,0.2,1.7,0.5,2.2
		c0.4,0.5,0.9,0.8,1.5,0.8c0.6,0,1.1-0.3,1.5-0.8s0.5-1.3,0.5-2.2L411,397.5L411,397.5z"/>
	<path class="st3" d="M420.6,402.4h-6.5v-1.3l3-3.2c0.4-0.5,0.7-0.9,0.9-1.2c0.2-0.3,0.3-0.7,0.3-1c0-0.4-0.1-0.8-0.3-1
		c-0.2-0.2-0.5-0.4-0.9-0.4c-0.4,0-0.8,0.1-1,0.4c-0.2,0.3-0.4,0.7-0.4,1.1H414c0-0.6,0.1-1.1,0.4-1.6s0.7-0.8,1.2-1.1
		c0.5-0.3,1.1-0.4,1.7-0.4c1,0,1.7,0.2,2.3,0.7s0.8,1.1,0.8,2c0,0.5-0.1,0.9-0.4,1.4s-0.6,1-1.2,1.7l-2.1,2.3h4V402.4L420.6,402.4z"
		/>
</g>
<g class="st2">
	<path class="st3" d="M452.7,397.9c0,0.9-0.1,1.6-0.4,2.3c-0.3,0.6-0.7,1.2-1.2,1.6l1.6,1.2l-1.2,1.1l-2-1.6c-0.2,0-0.5,0.1-0.7,0.1
		c-0.8,0-1.5-0.2-2.1-0.6c-0.6-0.4-1.1-0.9-1.4-1.6c-0.3-0.7-0.5-1.5-0.5-2.4v-0.5c0-0.9,0.2-1.7,0.5-2.5c0.3-0.7,0.8-1.2,1.4-1.6
		s1.3-0.6,2.1-0.6c0.8,0,1.5,0.2,2.1,0.6s1.1,0.9,1.4,1.6c0.3,0.7,0.5,1.5,0.5,2.4L452.7,397.9L452.7,397.9z M450.7,397.5
		c0-1-0.2-1.7-0.5-2.2s-0.9-0.8-1.5-0.8c-0.6,0-1.1,0.3-1.5,0.8c-0.4,0.5-0.5,1.2-0.5,2.2v0.5c0,1,0.2,1.7,0.5,2.2
		c0.4,0.5,0.9,0.8,1.5,0.8c0.6,0,1.1-0.3,1.5-0.8c0.4-0.5,0.5-1.3,0.5-2.2L450.7,397.5L450.7,397.5z"/>
	<path class="st3" d="M455.8,396.9h1c0.5,0,0.8-0.1,1-0.4c0.2-0.2,0.3-0.5,0.3-1c0-0.4-0.1-0.7-0.3-0.9s-0.5-0.3-0.9-0.3
		c-0.4,0-0.7,0.1-0.9,0.3c-0.2,0.2-0.4,0.5-0.4,0.8h-1.9c0-0.5,0.1-0.9,0.4-1.3c0.3-0.4,0.6-0.7,1.1-0.9c0.5-0.2,1-0.3,1.6-0.3
		c1,0,1.8,0.2,2.3,0.7c0.6,0.5,0.9,1.1,0.9,2c0,0.4-0.1,0.8-0.4,1.2c-0.3,0.4-0.6,0.6-1,0.8c0.5,0.2,0.9,0.5,1.2,0.9
		c0.3,0.4,0.4,0.8,0.4,1.3c0,0.8-0.3,1.5-0.9,2c-0.6,0.5-1.4,0.8-2.4,0.8c-0.9,0-1.7-0.2-2.3-0.8c-0.6-0.5-0.9-1.1-0.9-2h1.9
		c0,0.4,0.1,0.6,0.4,0.9c0.3,0.2,0.6,0.3,1,0.3c0.4,0,0.8-0.1,1-0.4c0.3-0.2,0.4-0.5,0.4-0.9c0-0.9-0.5-1.4-1.5-1.4h-1L455.8,396.9
		L455.8,396.9L455.8,396.9z"/>
</g>
<g class="st2">
	<path class="st3" d="M492.4,397.9c0,0.9-0.1,1.6-0.4,2.3c-0.3,0.6-0.7,1.2-1.2,1.6l1.6,1.2l-1.2,1.1l-2-1.6c-0.2,0-0.5,0.1-0.7,0.1
		c-0.8,0-1.5-0.2-2.1-0.6c-0.6-0.4-1.1-0.9-1.4-1.6c-0.3-0.7-0.5-1.5-0.5-2.4v-0.5c0-0.9,0.2-1.7,0.5-2.5c0.3-0.7,0.8-1.2,1.4-1.6
		c0.6-0.4,1.3-0.6,2.1-0.6c0.8,0,1.5,0.2,2.1,0.6s1.1,0.9,1.4,1.6c0.3,0.7,0.5,1.5,0.5,2.4L492.4,397.9L492.4,397.9z M490.4,397.5
		c0-1-0.2-1.7-0.5-2.2s-0.9-0.8-1.5-0.8s-1.1,0.3-1.5,0.8c-0.4,0.5-0.5,1.2-0.5,2.2v0.5c0,1,0.2,1.7,0.5,2.2
		c0.4,0.5,0.9,0.8,1.5,0.8c0.6,0,1.1-0.3,1.5-0.8c0.4-0.5,0.5-1.3,0.5-2.2L490.4,397.5L490.4,397.5z"/>
	<path class="st3" d="M499.1,398.9h1.1v1.5h-1.1v2h-1.9v-2h-3.9l-0.1-1.2l3.9-6.2h1.9L499.1,398.9L499.1,398.9z M495.2,398.9h2.1
		v-3.3l-0.1,0.2L495.2,398.9z"/>
</g>
<g class="st2">
	<path class="st4" d="M53.4,292.5v1.5h-0.2c-0.8,0-1.5,0.2-2,0.7c-0.5,0.4-0.8,1-0.9,1.8c0.5-0.5,1.1-0.8,1.9-0.8
		c0.8,0,1.5,0.3,2,0.9c0.5,0.6,0.7,1.4,0.7,2.3c0,0.6-0.1,1.2-0.4,1.7c-0.3,0.5-0.6,0.9-1.1,1.1s-1,0.4-1.6,0.4c-1,0-1.8-0.3-2.4-1
		s-0.9-1.6-0.9-2.8v-0.7c0-1,0.2-1.9,0.6-2.7s0.9-1.4,1.7-1.8c0.7-0.4,1.6-0.6,2.5-0.6L53.4,292.5L53.4,292.5z M51.6,297.2
		c-0.3,0-0.6,0.1-0.8,0.2c-0.2,0.2-0.4,0.4-0.5,0.6v0.6c0,0.6,0.1,1.1,0.4,1.5s0.6,0.5,1,0.5c0.4,0,0.7-0.2,1-0.5
		c0.2-0.3,0.4-0.7,0.4-1.2c0-0.5-0.1-0.9-0.4-1.2C52.3,297.3,52,297.2,51.6,297.2z"/>
	<path class="st4" d="M62.4,302h-6.5v-1.3l3-3.2c0.4-0.5,0.7-0.9,0.9-1.2s0.3-0.7,0.3-1c0-0.4-0.1-0.8-0.3-1
		c-0.2-0.2-0.5-0.4-0.9-0.4c-0.4,0-0.8,0.1-1,0.4c-0.2,0.3-0.4,0.7-0.4,1.1h-1.9c0-0.6,0.1-1.1,0.4-1.6c0.3-0.5,0.7-0.8,1.2-1.1
		c0.5-0.3,1.1-0.4,1.7-0.4c1,0,1.7,0.2,2.3,0.7c0.5,0.5,0.8,1.1,0.8,2c0,0.5-0.1,0.9-0.4,1.4s-0.7,1-1.2,1.7l-2.1,2.3h4L62.4,302
		L62.4,302z"/>
</g>
<g class="st2">
	<path class="st4" d="M88.3,304.1l0.5-4.8h5.3v1.6h-3.7l-0.2,2c0.4-0.2,0.9-0.4,1.4-0.4c0.9,0,1.6,0.3,2.1,0.8s0.8,1.3,0.8,2.3
		c0,0.6-0.1,1.1-0.4,1.6s-0.6,0.9-1.1,1.1c-0.5,0.3-1,0.4-1.7,0.4c-0.6,0-1.1-0.1-1.6-0.4c-0.5-0.2-0.9-0.6-1.2-1
		c-0.3-0.4-0.4-0.9-0.4-1.4h1.8c0,0.4,0.2,0.7,0.4,0.9c0.2,0.2,0.5,0.3,0.9,0.3c0.4,0,0.8-0.1,1-0.5c0.2-0.3,0.3-0.7,0.3-1.3
		c0-0.5-0.1-1-0.4-1.2c-0.3-0.3-0.6-0.4-1.1-0.4c-0.4,0-0.8,0.1-1.1,0.4l-0.2,0.2L88.3,304.1z"/>
	<path class="st4" d="M97.6,303.2h1c0.5,0,0.8-0.1,1.1-0.4s0.3-0.5,0.3-1c0-0.4-0.1-0.7-0.3-0.9c-0.2-0.2-0.5-0.3-0.9-0.3
		c-0.4,0-0.7,0.1-0.9,0.3s-0.4,0.5-0.4,0.8h-1.9c0-0.5,0.1-0.9,0.4-1.3c0.3-0.4,0.6-0.7,1.1-0.9c0.5-0.2,1-0.3,1.6-0.3
		c1,0,1.8,0.2,2.3,0.7c0.6,0.5,0.8,1.1,0.8,2c0,0.4-0.1,0.8-0.4,1.2c-0.3,0.4-0.6,0.6-1,0.8c0.5,0.2,0.9,0.5,1.2,0.9
		s0.4,0.8,0.4,1.3c0,0.8-0.3,1.5-0.9,2s-1.4,0.8-2.4,0.8c-0.9,0-1.7-0.2-2.3-0.8s-0.9-1.1-0.9-2h1.9c0,0.4,0.1,0.6,0.4,0.9
		c0.3,0.2,0.6,0.3,1,0.3c0.4,0,0.8-0.1,1-0.4c0.3-0.2,0.4-0.5,0.4-0.9c0-0.9-0.5-1.4-1.6-1.4h-1L97.6,303.2L97.6,303.2L97.6,303.2z"
		/>
</g>
<g class="st2">
	<path class="st4" d="M134.2,275.2l-3.6,8.4h-2l3.6-7.9h-4.7v-1.5h6.6V275.2L134.2,275.2z"/>
	<path class="st4" d="M135.6,279l0.5-4.8h5.3v1.6h-3.7l-0.2,2c0.4-0.2,0.9-0.4,1.4-0.4c0.9,0,1.6,0.3,2.1,0.8s0.8,1.3,0.8,2.3
		c0,0.6-0.1,1.1-0.4,1.6s-0.6,0.9-1.1,1.1c-0.5,0.3-1,0.4-1.7,0.4c-0.6,0-1.1-0.1-1.6-0.4c-0.5-0.2-0.9-0.6-1.1-1
		c-0.3-0.4-0.4-0.9-0.4-1.4h1.9c0,0.4,0.2,0.7,0.4,0.9c0.2,0.2,0.5,0.3,0.9,0.3c0.4,0,0.8-0.1,1-0.5c0.2-0.3,0.3-0.7,0.3-1.3
		c0-0.5-0.1-1-0.4-1.2c-0.3-0.3-0.6-0.4-1.1-0.4c-0.4,0-0.8,0.1-1.1,0.4l-0.2,0.2L135.6,279z"/>
</g>
<g class="st2">
	<path class="st4" d="M158.8,245.2h-1.9V238l-2.2,0.7v-1.5l3.9-1.4h0.2L158.8,245.2L158.8,245.2z"/>
	<path class="st4" d="M168.2,241.3c0,1.3-0.3,2.3-0.8,3c-0.5,0.7-1.3,1-2.4,1c-1,0-1.8-0.3-2.4-1c-0.6-0.7-0.8-1.6-0.8-2.9v-1.7
		c0-1.3,0.3-2.3,0.8-3s1.3-1,2.4-1s1.8,0.3,2.4,1c0.5,0.7,0.8,1.6,0.8,2.9V241.3z M166.3,239.4c0-0.8-0.1-1.4-0.3-1.7
		c-0.2-0.4-0.6-0.5-1-0.5c-0.4,0-0.8,0.2-1,0.5c-0.2,0.3-0.3,0.9-0.3,1.6v2.3c0,0.8,0.1,1.3,0.3,1.7c0.2,0.4,0.6,0.6,1,0.6
		s0.8-0.2,1-0.5c0.2-0.4,0.3-0.9,0.3-1.6L166.3,239.4L166.3,239.4z"/>
	<path class="st4" d="M175.8,236.8l-3.6,8.4h-2l3.6-7.9h-4.7v-1.5h6.6V236.8L175.8,236.8z"/>
</g>
<g class="st2">
	<path class="st4" d="M189.1,180.9h-1.9v-7.2l-2.2,0.7v-1.5l3.9-1.4h0.2L189.1,180.9L189.1,180.9z"/>
	<path class="st4" d="M198.5,172.5l-3.6,8.4h-2l3.6-7.9h-4.7v-1.5h6.6V172.5L198.5,172.5z"/>
	<path class="st4" d="M205.8,174c0,0.4-0.1,0.9-0.3,1.2s-0.5,0.6-0.9,0.9c0.4,0.2,0.8,0.5,1.1,0.9c0.3,0.4,0.4,0.8,0.4,1.4
		c0,0.8-0.3,1.5-0.9,2c-0.6,0.5-1.3,0.7-2.3,0.7s-1.8-0.2-2.3-0.7s-0.9-1.1-0.9-2c0-0.5,0.1-1,0.4-1.4c0.3-0.4,0.6-0.7,1.1-0.9
		c-0.4-0.2-0.7-0.5-0.9-0.9s-0.3-0.8-0.3-1.2c0-0.8,0.3-1.4,0.8-1.9c0.5-0.5,1.3-0.7,2.2-0.7s1.6,0.2,2.2,0.7
		C205.6,172.5,205.8,173.2,205.8,174z M204.1,178.2c0-0.4-0.1-0.7-0.4-1s-0.6-0.4-0.9-0.4c-0.4,0-0.7,0.1-0.9,0.4s-0.4,0.6-0.4,1
		s0.1,0.7,0.4,1s0.6,0.4,1,0.4s0.7-0.1,0.9-0.4S204.1,178.6,204.1,178.2z M204,174.1c0-0.4-0.1-0.7-0.3-0.9
		c-0.2-0.2-0.5-0.3-0.8-0.3c-0.4,0-0.6,0.1-0.8,0.3s-0.3,0.5-0.3,0.9s0.1,0.7,0.3,0.9s0.5,0.3,0.8,0.3s0.6-0.1,0.8-0.3
		C203.9,174.8,204,174.4,204,174.1z"/>
</g>
<g class="st2">
	<path class="st4" d="M249.6,89.2h-6.4v-1.3l3-3.2c0.4-0.4,0.7-0.8,0.9-1.2c0.2-0.3,0.3-0.7,0.3-1c0-0.4-0.1-0.8-0.3-1
		c-0.2-0.2-0.5-0.4-0.9-0.4c-0.4,0-0.8,0.1-1,0.4c-0.2,0.3-0.4,0.7-0.4,1.1h-1.9c0-0.6,0.1-1.1,0.4-1.6c0.3-0.5,0.7-0.8,1.2-1.1
		s1.1-0.4,1.7-0.4c1,0,1.7,0.2,2.3,0.7s0.8,1.1,0.8,2c0,0.5-0.1,0.9-0.4,1.4s-0.6,1.1-1.2,1.7l-2.1,2.3h4.1V89.2L249.6,89.2z"/>
	<path class="st4" d="M256.2,85.7h1.1v1.5h-1.1v2h-1.9v-2h-3.9l-0.1-1.2l3.9-6.2h1.9V85.7z M252.3,85.7h2.1v-3.3l-0.1,0.2
		L252.3,85.7z"/>
	<path class="st4" d="M264.6,85.3c0,1.3-0.3,2.3-0.8,3c-0.5,0.7-1.3,1-2.4,1c-1,0-1.8-0.3-2.4-1c-0.5-0.7-0.8-1.6-0.8-2.9v-1.7
		c0-1.3,0.3-2.3,0.8-3s1.3-1,2.4-1c1,0,1.8,0.3,2.4,1c0.5,0.7,0.8,1.6,0.8,2.9L264.6,85.3L264.6,85.3z M262.8,83.4
		c0-0.8-0.1-1.3-0.3-1.7s-0.5-0.5-1-0.5c-0.4,0-0.8,0.2-1,0.5c-0.2,0.3-0.3,0.9-0.3,1.6v2.3c0,0.8,0.1,1.3,0.3,1.7s0.5,0.6,1,0.6
		s0.8-0.2,1-0.5c0.2-0.4,0.3-0.9,0.3-1.6L262.8,83.4L262.8,83.4z"/>
</g>
<g class="st2">
	<path class="st5" d="M289.3,162h-6.5v-1.3l3-3.2c0.4-0.4,0.7-0.9,0.9-1.2c0.2-0.3,0.3-0.7,0.3-1c0-0.4-0.1-0.8-0.3-1
		c-0.2-0.2-0.5-0.4-0.9-0.4c-0.4,0-0.8,0.1-1,0.4c-0.2,0.3-0.4,0.7-0.4,1.1h-1.9c0-0.6,0.1-1.1,0.4-1.6c0.3-0.5,0.7-0.8,1.2-1.1
		s1.1-0.4,1.7-0.4c1,0,1.7,0.2,2.3,0.7s0.8,1.1,0.8,2c0,0.5-0.1,0.9-0.4,1.4s-0.6,1.1-1.2,1.7l-2.1,2.3h4V162L289.3,162z"/>
	<path class="st5" d="M296.8,158.1c0,1.3-0.3,2.3-0.8,3c-0.5,0.7-1.3,1-2.4,1c-1,0-1.8-0.3-2.4-1c-0.5-0.7-0.8-1.6-0.8-2.9v-1.7
		c0-1.3,0.3-2.3,0.8-3c0.5-0.7,1.3-1,2.4-1s1.8,0.3,2.4,1s0.8,1.6,0.8,2.9L296.8,158.1L296.8,158.1z M294.9,156.2
		c0-0.8-0.1-1.4-0.3-1.7c-0.2-0.4-0.5-0.5-1-0.5c-0.4,0-0.8,0.2-1,0.5c-0.2,0.3-0.3,0.9-0.3,1.6v2.3c0,0.8,0.1,1.3,0.3,1.7
		c0.2,0.4,0.5,0.6,1,0.6s0.8-0.2,1-0.5c0.2-0.4,0.3-0.9,0.3-1.6L294.9,156.2L294.9,156.2z"/>
	<path class="st5" d="M304.5,162H298v-1.3l3-3.2c0.4-0.4,0.7-0.9,0.9-1.2c0.2-0.3,0.3-0.7,0.3-1c0-0.4-0.1-0.8-0.3-1
		c-0.2-0.2-0.5-0.4-0.9-0.4c-0.4,0-0.8,0.1-1,0.4c-0.2,0.3-0.4,0.7-0.4,1.1h-1.9c0-0.6,0.1-1.1,0.4-1.6c0.3-0.5,0.7-0.8,1.2-1.1
		c0.5-0.3,1.1-0.4,1.7-0.4c1,0,1.7,0.2,2.3,0.7c0.5,0.5,0.8,1.1,0.8,2c0,0.5-0.1,0.9-0.4,1.4s-0.6,1.1-1.2,1.7l-2.1,2.3h4V162
		L304.5,162z"/>
</g>
<g class="st2">
	<path class="st5" d="M329,138.4h-6.5v-1.3l3-3.2c0.4-0.4,0.7-0.9,0.9-1.2c0.2-0.3,0.3-0.7,0.3-1c0-0.4-0.1-0.8-0.3-1
		c-0.2-0.2-0.5-0.4-0.9-0.4c-0.4,0-0.8,0.1-1,0.4c-0.2,0.3-0.4,0.7-0.4,1.1h-1.9c0-0.6,0.1-1.1,0.4-1.6c0.3-0.5,0.7-0.8,1.2-1.1
		s1.1-0.4,1.7-0.4c1,0,1.7,0.2,2.3,0.7s0.8,1.1,0.8,2c0,0.5-0.1,0.9-0.4,1.4s-0.6,1.1-1.2,1.7l-2.1,2.3h4V138.4L329,138.4z"/>
	<path class="st5" d="M336.5,134.5c0,1.3-0.3,2.3-0.8,3s-1.3,1-2.4,1c-1,0-1.8-0.3-2.4-1c-0.5-0.7-0.8-1.6-0.8-2.9v-1.7
		c0-1.3,0.3-2.3,0.8-3c0.5-0.7,1.3-1,2.4-1s1.8,0.3,2.4,1s0.8,1.6,0.8,2.9L336.5,134.5L336.5,134.5z M334.6,132.6
		c0-0.8-0.1-1.4-0.3-1.7c-0.2-0.4-0.5-0.5-1-0.5c-0.4,0-0.8,0.2-1,0.5c-0.2,0.3-0.3,0.9-0.3,1.6v2.3c0,0.8,0.1,1.3,0.3,1.7
		c0.2,0.4,0.5,0.6,1,0.6s0.8-0.2,1-0.5c0.2-0.4,0.3-0.9,0.3-1.6L334.6,132.6L334.6,132.6z"/>
	<path class="st5" d="M344.2,138.4h-6.5v-1.3l3-3.2c0.4-0.4,0.7-0.9,0.9-1.2c0.2-0.3,0.3-0.7,0.3-1c0-0.4-0.1-0.8-0.3-1
		c-0.2-0.2-0.5-0.4-0.9-0.4c-0.4,0-0.8,0.1-1,0.4c-0.2,0.3-0.4,0.7-0.4,1.1h-1.9c0-0.6,0.1-1.1,0.4-1.6c0.3-0.5,0.7-0.8,1.2-1.1
		s1.1-0.4,1.7-0.4c1,0,1.7,0.2,2.3,0.7s0.8,1.1,0.8,2c0,0.5-0.1,0.9-0.4,1.4s-0.6,1.1-1.2,1.7l-2.1,2.3h4V138.4L344.2,138.4z"/>
</g>
<g class="st2">
	<path class="st4" d="M366.8,141.2H365V134l-2.2,0.7v-1.5l3.9-1.4h0.2L366.8,141.2L366.8,141.2z"/>
	<path class="st4" d="M374.2,137.4c-0.5,0.5-1.1,0.7-1.7,0.7c-0.8,0-1.5-0.3-2-0.9c-0.5-0.6-0.8-1.3-0.8-2.3c0-0.6,0.1-1.2,0.4-1.7
		c0.3-0.5,0.6-0.9,1.1-1.2s1-0.4,1.6-0.4c0.6,0,1.2,0.1,1.6,0.5s0.9,0.8,1.1,1.3c0.3,0.6,0.4,1.2,0.4,2v0.7c0,1.6-0.4,2.8-1.2,3.7
		s-1.9,1.4-3.3,1.4l-0.5,0v-1.6l0.4,0C373.2,139.6,374.1,138.9,374.2,137.4z M373,136.7c0.3,0,0.6-0.1,0.8-0.2
		c0.2-0.1,0.4-0.3,0.5-0.6v-0.8c0-0.6-0.1-1.1-0.4-1.5s-0.6-0.5-1-0.5c-0.4,0-0.7,0.2-0.9,0.5c-0.2,0.3-0.4,0.8-0.4,1.3
		s0.1,0.9,0.4,1.3C372.2,136.6,372.6,136.7,373,136.7z"/>
	<path class="st4" d="M382.5,131.7v1.5h-0.2c-0.8,0-1.5,0.2-2,0.7c-0.5,0.4-0.8,1-0.9,1.8c0.5-0.5,1.1-0.8,1.9-0.8
		c0.8,0,1.5,0.3,2,0.9c0.5,0.6,0.7,1.4,0.7,2.3c0,0.6-0.1,1.2-0.4,1.7c-0.3,0.5-0.6,0.9-1.1,1.1s-1,0.4-1.6,0.4c-1,0-1.8-0.3-2.4-1
		s-0.9-1.6-0.9-2.8v-0.7c0-1,0.2-1.9,0.6-2.7c0.4-0.8,0.9-1.4,1.7-1.8c0.7-0.4,1.6-0.6,2.5-0.6L382.5,131.7L382.5,131.7z
		 M380.7,136.4c-0.3,0-0.6,0.1-0.8,0.2c-0.2,0.2-0.4,0.4-0.5,0.6v0.6c0,0.6,0.1,1.1,0.4,1.5s0.6,0.5,1,0.5c0.4,0,0.7-0.2,1-0.5
		c0.2-0.3,0.4-0.7,0.4-1.2c0-0.5-0.1-0.9-0.4-1.2C381.5,136.6,381.1,136.4,380.7,136.4z"/>
</g>
<g class="st2">
	<path class="st4" d="M404.7,179.9h-1.9v-7.2l-2.2,0.7v-1.5l3.9-1.4h0.2L404.7,179.9L404.7,179.9z"/>
	<path class="st4" d="M413.8,173c0,0.4-0.1,0.9-0.3,1.2c-0.2,0.4-0.5,0.6-1,0.9c0.5,0.2,0.8,0.5,1.1,0.9c0.3,0.4,0.4,0.8,0.4,1.4
		c0,0.8-0.3,1.5-0.9,2s-1.3,0.7-2.3,0.7s-1.8-0.2-2.3-0.7s-0.9-1.1-0.9-2c0-0.5,0.1-1,0.4-1.4c0.3-0.4,0.6-0.7,1.1-0.9
		c-0.4-0.2-0.7-0.5-0.9-0.9s-0.3-0.8-0.3-1.2c0-0.8,0.3-1.4,0.8-1.9c0.5-0.5,1.3-0.7,2.2-0.7c0.9,0,1.6,0.2,2.2,0.7
		C413.6,171.6,413.8,172.2,413.8,173z M412.2,177.2c0-0.4-0.1-0.7-0.4-1c-0.2-0.2-0.6-0.4-1-0.4c-0.4,0-0.7,0.1-1,0.4
		c-0.2,0.2-0.4,0.6-0.4,1s0.1,0.7,0.4,1c0.2,0.2,0.6,0.4,1,0.4s0.7-0.1,1-0.4C412.1,178,412.2,177.6,412.2,177.2z M412,173.1
		c0-0.4-0.1-0.7-0.3-0.9c-0.2-0.2-0.5-0.3-0.8-0.3c-0.4,0-0.6,0.1-0.8,0.3s-0.3,0.5-0.3,0.9s0.1,0.7,0.3,0.9
		c0.2,0.2,0.5,0.3,0.8,0.3s0.6-0.1,0.8-0.3C411.9,173.8,412,173.5,412,173.1z"/>
	<path class="st4" d="M420.4,170.4v1.5h-0.2c-0.8,0-1.5,0.2-2,0.7c-0.5,0.4-0.8,1-0.9,1.8c0.5-0.5,1.1-0.8,1.9-0.8
		c0.8,0,1.5,0.3,2,0.9c0.5,0.6,0.7,1.4,0.7,2.3c0,0.6-0.1,1.2-0.4,1.7s-0.6,0.9-1.1,1.1s-1,0.4-1.6,0.4c-1,0-1.8-0.3-2.4-1
		s-0.9-1.6-0.9-2.8v-0.7c0-1,0.2-1.9,0.6-2.7c0.4-0.8,0.9-1.4,1.7-1.8c0.7-0.4,1.6-0.6,2.5-0.6L420.4,170.4L420.4,170.4z
		 M418.5,175.2c-0.3,0-0.6,0.1-0.8,0.2c-0.2,0.2-0.4,0.4-0.5,0.6v0.6c0,0.6,0.1,1.1,0.4,1.5s0.6,0.5,1,0.5c0.4,0,0.7-0.2,1-0.5
		c0.2-0.3,0.4-0.7,0.4-1.2c0-0.5-0.1-0.9-0.4-1.2C419.3,175.3,419,175.2,418.5,175.2z"/>
</g>
<g class="st2">
	<path class="st4" d="M448.2,65.6h-6.5v-1.3l3-3.2c0.4-0.4,0.7-0.8,0.9-1.2c0.2-0.3,0.3-0.7,0.3-1c0-0.4-0.1-0.8-0.3-1
		c-0.2-0.2-0.5-0.4-0.9-0.4c-0.4,0-0.8,0.1-1,0.4c-0.2,0.3-0.4,0.7-0.4,1.1h-1.9c0-0.6,0.1-1.1,0.4-1.6c0.3-0.5,0.7-0.8,1.2-1.1
		c0.5-0.3,1.1-0.4,1.7-0.4c1,0,1.7,0.2,2.3,0.7s0.8,1.1,0.8,2c0,0.5-0.1,0.9-0.4,1.4c-0.2,0.5-0.6,1.1-1.2,1.7l-2.1,2.3h4V65.6
		L448.2,65.6z"/>
	<path class="st4" d="M454.4,56.1v1.5h-0.2c-0.8,0-1.5,0.2-2,0.7c-0.5,0.4-0.8,1-0.9,1.8c0.5-0.5,1.1-0.8,1.9-0.8
		c0.8,0,1.5,0.3,2,0.9c0.5,0.6,0.7,1.4,0.7,2.3c0,0.6-0.1,1.2-0.4,1.7c-0.3,0.5-0.6,0.9-1.1,1.2s-1,0.4-1.6,0.4c-1,0-1.8-0.3-2.4-1
		c-0.6-0.7-0.9-1.6-0.9-2.8v-0.7c0-1,0.2-1.9,0.6-2.7c0.4-0.8,0.9-1.4,1.7-1.8c0.7-0.4,1.6-0.6,2.5-0.7L454.4,56.1L454.4,56.1z
		 M452.6,60.8c-0.3,0-0.6,0.1-0.8,0.2c-0.2,0.2-0.4,0.4-0.5,0.6v0.6c0,0.6,0.1,1.1,0.4,1.5s0.6,0.5,1,0.5c0.4,0,0.7-0.2,1-0.5
		c0.2-0.3,0.4-0.7,0.4-1.2c0-0.5-0.1-0.9-0.4-1.2C453.3,61,453,60.8,452.6,60.8z"/>
	<path class="st4" d="M463.2,61.7c0,1.3-0.3,2.3-0.8,3c-0.5,0.7-1.3,1-2.4,1c-1,0-1.8-0.3-2.4-1c-0.5-0.7-0.8-1.6-0.8-2.9v-1.7
		c0-1.3,0.3-2.3,0.8-3c0.5-0.7,1.3-1,2.4-1c1,0,1.8,0.3,2.4,1c0.5,0.7,0.8,1.6,0.8,2.9L463.2,61.7L463.2,61.7z M461.4,59.8
		c0-0.8-0.1-1.3-0.3-1.7s-0.5-0.5-1-0.5c-0.4,0-0.8,0.2-1,0.5c-0.2,0.3-0.3,0.9-0.3,1.6V62c0,0.8,0.1,1.3,0.3,1.7s0.5,0.6,1,0.6
		s0.8-0.2,1-0.5c0.2-0.4,0.3-0.9,0.3-1.6L461.4,59.8L461.4,59.8z"/>
</g>
<g class="st2">
	<path class="st4" d="M497.3,190.4h-1.9v-7.2l-2.2,0.7v-1.5l3.9-1.4h0.2L497.3,190.4L497.3,190.4z"/>
	<path class="st4" d="M505.5,180.8v1.5h-0.2c-0.8,0-1.5,0.2-2,0.7c-0.5,0.4-0.8,1-0.9,1.8c0.5-0.5,1.1-0.8,1.9-0.8
		c0.8,0,1.5,0.3,2,0.9s0.7,1.4,0.7,2.3c0,0.6-0.1,1.2-0.4,1.7c-0.3,0.5-0.6,0.9-1.1,1.1s-1,0.4-1.6,0.4c-1,0-1.8-0.3-2.4-1
		s-0.9-1.6-0.9-2.8V186c0-1,0.2-1.9,0.6-2.7c0.4-0.8,0.9-1.4,1.7-1.8c0.7-0.4,1.6-0.6,2.5-0.6L505.5,180.8L505.5,180.8z
		 M503.6,185.6c-0.3,0-0.6,0.1-0.8,0.2c-0.2,0.2-0.4,0.4-0.5,0.6v0.6c0,0.6,0.1,1.1,0.4,1.5s0.6,0.5,1,0.5c0.4,0,0.7-0.2,1-0.5
		c0.2-0.3,0.4-0.7,0.4-1.2c0-0.5-0.1-0.9-0.4-1.2C504.4,185.7,504,185.6,503.6,185.6z"/>
	<path class="st4" d="M513.5,186.8h1.1v1.5h-1.1v2h-1.9v-2h-3.9l-0.1-1.2l3.9-6.2h1.9L513.5,186.8L513.5,186.8z M509.5,186.8h2.1
		v-3.3l-0.1,0.2L509.5,186.8z"/>
</g>
<rect x="41.7" y="344.6" class="st0" width="29" height="39.2"/>
<rect x="81.2" y="321" class="st0" width="29" height="62.9"/>
<rect x="120.6" y="317.9" class="st0" width="29" height="65.9"/>
<rect x="160.1" y="255.6" class="st0" width="29" height="128.3"/>
<rect x="199.6" y="252.7" class="st0" width="29" height="131.1"/>
<rect x="357.4" y="233.6" class="st0" width="29" height="150.3"/>
<rect x="396.9" y="232.6" class="st0" width="29" height="151.2"/>
<g class="st2">
	<path class="st0" d="M10.7,384.3c0,1.3-0.3,2.3-0.8,3s-1.3,1-2.4,1c-1,0-1.8-0.3-2.3-1c-0.6-0.7-0.8-1.6-0.8-2.9v-1.7
		c0-1.3,0.3-2.3,0.8-3s1.3-1,2.3-1s1.8,0.3,2.3,1s0.8,1.6,0.8,2.9V384.3z M8.9,382.4c0-0.8-0.1-1.4-0.3-1.7c-0.2-0.4-0.6-0.5-1-0.5
		c-0.4,0-0.8,0.2-1,0.5c-0.2,0.3-0.3,0.9-0.3,1.6v2.3c0,0.8,0.1,1.3,0.3,1.7s0.6,0.6,1,0.6c0.5,0,0.8-0.2,1-0.5
		c0.2-0.4,0.3-0.9,0.3-1.6L8.9,382.4L8.9,382.4z"/>
</g>
<g class="st2">
	<path class="st4" d="M540.4,384.3c0,1.3-0.3,2.3-0.8,3s-1.3,1-2.4,1c-1,0-1.8-0.3-2.3-1c-0.5-0.7-0.8-1.6-0.8-2.9v-1.7
		c0-1.3,0.3-2.3,0.8-3s1.3-1,2.3-1s1.8,0.3,2.3,1s0.8,1.6,0.8,2.9L540.4,384.3L540.4,384.3z M538.5,382.4c0-0.8-0.1-1.4-0.3-1.7
		c-0.2-0.4-0.5-0.5-1-0.5c-0.4,0-0.8,0.2-1,0.5s-0.3,0.9-0.3,1.6v2.3c0,0.8,0.1,1.3,0.3,1.7s0.5,0.6,1,0.6s0.8-0.2,1-0.5
		c0.2-0.4,0.3-0.9,0.3-1.6L538.5,382.4L538.5,382.4z"/>
</g>
<g class="st2">
	<path class="st4" d="M526.7,324.5l0.5-4.8h5.3v1.6h-3.7l-0.2,2c0.4-0.2,0.9-0.4,1.4-0.4c0.9,0,1.6,0.3,2.1,0.8s0.8,1.3,0.8,2.3
		c0,0.6-0.1,1.1-0.4,1.6c-0.3,0.5-0.6,0.9-1.1,1.1c-0.5,0.3-1,0.4-1.7,0.4c-0.6,0-1.1-0.1-1.6-0.4c-0.5-0.2-0.9-0.6-1.2-1
		s-0.4-0.9-0.5-1.4h1.8c0,0.4,0.2,0.7,0.4,0.9c0.2,0.2,0.5,0.3,0.9,0.3c0.4,0,0.8-0.1,1-0.5c0.2-0.3,0.3-0.7,0.3-1.3
		c0-0.5-0.1-1-0.4-1.2c-0.3-0.3-0.6-0.4-1.1-0.4c-0.4,0-0.8,0.1-1.1,0.4l-0.2,0.2L526.7,324.5z"/>
	<path class="st4" d="M540.4,325.3c0,1.3-0.3,2.3-0.8,3s-1.3,1-2.4,1c-1,0-1.8-0.3-2.3-1c-0.5-0.7-0.8-1.6-0.8-2.9v-1.7
		c0-1.3,0.3-2.3,0.8-3s1.3-1,2.3-1s1.8,0.3,2.3,1s0.8,1.6,0.8,2.9L540.4,325.3L540.4,325.3z M538.5,323.4c0-0.8-0.1-1.4-0.3-1.7
		c-0.2-0.4-0.5-0.5-1-0.5c-0.4,0-0.8,0.2-1,0.5s-0.3,0.9-0.3,1.6v2.3c0,0.8,0.1,1.3,0.3,1.7s0.5,0.6,1,0.6s0.8-0.2,1-0.5
		c0.2-0.4,0.3-0.9,0.3-1.6L538.5,323.4L538.5,323.4z"/>
</g>
<g class="st2">
	<path class="st4" d="M523.4,270.1h-1.9v-7.2l-2.2,0.7v-1.5l3.9-1.4h0.2L523.4,270.1L523.4,270.1z"/>
	<path class="st4" d="M532.8,266.2c0,1.3-0.3,2.3-0.8,3s-1.3,1-2.4,1c-1,0-1.8-0.3-2.3-1c-0.5-0.7-0.8-1.6-0.8-2.9v-1.7
		c0-1.3,0.3-2.3,0.8-3s1.3-1,2.3-1s1.8,0.3,2.3,1s0.8,1.6,0.8,2.9L532.8,266.2L532.8,266.2z M530.9,264.3c0-0.8-0.1-1.4-0.3-1.7
		c-0.2-0.4-0.5-0.5-1-0.5c-0.4,0-0.8,0.2-1,0.5c-0.2,0.3-0.3,0.9-0.3,1.6v2.3c0,0.8,0.1,1.3,0.3,1.7s0.5,0.6,1,0.6s0.8-0.2,1-0.5
		c0.2-0.4,0.3-0.9,0.3-1.6L530.9,264.3L530.9,264.3z"/>
	<path class="st4" d="M540.4,266.2c0,1.3-0.3,2.3-0.8,3s-1.3,1-2.4,1c-1,0-1.8-0.3-2.3-1c-0.5-0.7-0.8-1.6-0.8-2.9v-1.7
		c0-1.3,0.3-2.3,0.8-3s1.3-1,2.3-1s1.8,0.3,2.3,1s0.8,1.6,0.8,2.9L540.4,266.2L540.4,266.2z M538.5,264.3c0-0.8-0.1-1.4-0.3-1.7
		c-0.2-0.4-0.5-0.5-1-0.5c-0.4,0-0.8,0.2-1,0.5c-0.2,0.3-0.3,0.9-0.3,1.6v2.3c0,0.8,0.1,1.3,0.3,1.7s0.5,0.6,1,0.6s0.8-0.2,1-0.5
		c0.2-0.4,0.3-0.9,0.3-1.6L538.5,264.3L538.5,264.3z"/>
</g>
<g class="st2">
	<path class="st4" d="M523.4,211h-1.9v-7.2l-2.2,0.7V203l3.9-1.4h0.2L523.4,211L523.4,211z"/>
	<path class="st4" d="M526.7,206.4l0.5-4.8h5.3v1.6h-3.7l-0.2,2c0.4-0.2,0.9-0.4,1.4-0.4c0.9,0,1.6,0.3,2.1,0.8s0.8,1.3,0.8,2.3
		c0,0.6-0.1,1.1-0.4,1.6c-0.3,0.5-0.6,0.9-1.1,1.1c-0.5,0.3-1,0.4-1.7,0.4c-0.6,0-1.1-0.1-1.6-0.4c-0.5-0.2-0.9-0.6-1.2-1
		s-0.4-0.9-0.5-1.4h1.8c0,0.4,0.2,0.7,0.4,0.9c0.2,0.2,0.5,0.3,0.9,0.3c0.4,0,0.8-0.1,1-0.4c0.2-0.3,0.3-0.7,0.3-1.3
		c0-0.5-0.1-0.9-0.4-1.2c-0.3-0.3-0.6-0.4-1.1-0.4c-0.4,0-0.8,0.1-1.1,0.4l-0.2,0.2L526.7,206.4z"/>
	<path class="st4" d="M540.4,207.1c0,1.3-0.3,2.3-0.8,3s-1.3,1-2.4,1c-1,0-1.8-0.3-2.3-1c-0.5-0.7-0.8-1.6-0.8-2.9v-1.7
		c0-1.3,0.3-2.3,0.8-3s1.3-1,2.3-1s1.8,0.3,2.3,1s0.8,1.6,0.8,2.9L540.4,207.1L540.4,207.1z M538.5,205.2c0-0.8-0.1-1.4-0.3-1.7
		c-0.2-0.4-0.5-0.5-1-0.5c-0.4,0-0.8,0.2-1,0.5c-0.2,0.3-0.3,0.9-0.3,1.6v2.3c0,0.8,0.1,1.3,0.3,1.7c0.2,0.4,0.5,0.6,1,0.6
		s0.8-0.2,1-0.5c0.2-0.4,0.3-0.9,0.3-1.6L538.5,205.2L538.5,205.2z"/>
</g>
<g class="st2">
	<path class="st4" d="M525.3,152h-6.5v-1.3l3-3.2c0.4-0.4,0.7-0.9,0.9-1.2s0.3-0.7,0.3-1c0-0.4-0.1-0.8-0.3-1
		c-0.2-0.2-0.5-0.4-0.9-0.4c-0.4,0-0.8,0.1-1,0.4s-0.4,0.7-0.4,1.1h-1.9c0-0.6,0.1-1.1,0.4-1.6s0.7-0.8,1.2-1.1
		c0.5-0.3,1.1-0.4,1.7-0.4c1,0,1.7,0.2,2.3,0.7c0.5,0.5,0.8,1.1,0.8,2c0,0.5-0.1,0.9-0.4,1.4s-0.7,1.1-1.2,1.7l-2.1,2.3h4L525.3,152
		L525.3,152z"/>
	<path class="st4" d="M532.8,148.1c0,1.3-0.3,2.3-0.8,3s-1.3,1-2.4,1c-1,0-1.8-0.3-2.3-1c-0.5-0.7-0.8-1.6-0.8-2.9v-1.7
		c0-1.3,0.3-2.3,0.8-3s1.3-1,2.3-1s1.8,0.3,2.3,1s0.8,1.6,0.8,2.9L532.8,148.1L532.8,148.1z M530.9,146.2c0-0.8-0.1-1.4-0.3-1.7
		c-0.2-0.4-0.5-0.5-1-0.5c-0.4,0-0.8,0.2-1,0.5c-0.2,0.3-0.3,0.9-0.3,1.6v2.3c0,0.8,0.1,1.3,0.3,1.7c0.2,0.4,0.5,0.6,1,0.6
		s0.8-0.2,1-0.5c0.2-0.4,0.3-0.9,0.3-1.6L530.9,146.2L530.9,146.2z"/>
	<path class="st4" d="M540.4,148.1c0,1.3-0.3,2.3-0.8,3s-1.3,1-2.4,1c-1,0-1.8-0.3-2.3-1c-0.5-0.7-0.8-1.6-0.8-2.9v-1.7
		c0-1.3,0.3-2.3,0.8-3s1.3-1,2.3-1s1.8,0.3,2.3,1s0.8,1.6,0.8,2.9L540.4,148.1L540.4,148.1z M538.5,146.2c0-0.8-0.1-1.4-0.3-1.7
		c-0.2-0.4-0.5-0.5-1-0.5c-0.4,0-0.8,0.2-1,0.5c-0.2,0.3-0.3,0.9-0.3,1.6v2.3c0,0.8,0.1,1.3,0.3,1.7c0.2,0.4,0.5,0.6,1,0.6
		s0.8-0.2,1-0.5c0.2-0.4,0.3-0.9,0.3-1.6L538.5,146.2L538.5,146.2z"/>
</g>
<g class="st2">
	<path class="st4" d="M525.3,92.9h-6.5v-1.3l3-3.2c0.4-0.4,0.7-0.8,0.9-1.2s0.3-0.7,0.3-1c0-0.4-0.1-0.8-0.3-1
		c-0.2-0.2-0.5-0.4-0.9-0.4c-0.4,0-0.8,0.1-1,0.4c-0.2,0.3-0.4,0.7-0.4,1.1h-1.9c0-0.6,0.1-1.1,0.4-1.6s0.7-0.8,1.2-1.1
		c0.5-0.3,1.1-0.4,1.7-0.4c1,0,1.7,0.2,2.3,0.7c0.5,0.5,0.8,1.1,0.8,2c0,0.5-0.1,0.9-0.4,1.4s-0.7,1.1-1.2,1.7l-2.1,2.3h4
		L525.3,92.9L525.3,92.9z"/>
	<path class="st4" d="M526.7,88.3l0.5-4.8h5.3v1.6h-3.7l-0.2,2c0.4-0.2,0.9-0.4,1.4-0.4c0.9,0,1.6,0.3,2.1,0.8
		c0.5,0.6,0.8,1.3,0.8,2.3c0,0.6-0.1,1.2-0.4,1.6c-0.3,0.5-0.6,0.8-1.1,1.1c-0.5,0.3-1,0.4-1.7,0.4c-0.6,0-1.1-0.1-1.6-0.3
		c-0.5-0.2-0.9-0.6-1.2-1c-0.3-0.4-0.4-0.9-0.5-1.4h1.8c0,0.4,0.2,0.7,0.4,0.9c0.2,0.2,0.5,0.3,0.9,0.3c0.4,0,0.8-0.2,1-0.4
		c0.2-0.3,0.3-0.7,0.3-1.3c0-0.5-0.1-0.9-0.4-1.2c-0.3-0.3-0.6-0.4-1.1-0.4c-0.4,0-0.8,0.1-1.1,0.3l-0.2,0.2L526.7,88.3z"/>
	<path class="st4" d="M540.4,89c0,1.3-0.3,2.3-0.8,3c-0.5,0.7-1.3,1-2.4,1c-1,0-1.8-0.3-2.3-1c-0.5-0.7-0.8-1.6-0.8-2.9v-1.7
		c0-1.3,0.3-2.3,0.8-3s1.3-1,2.3-1s1.8,0.3,2.3,1c0.5,0.7,0.8,1.6,0.8,2.9L540.4,89L540.4,89z M538.5,87.1c0-0.8-0.1-1.3-0.3-1.7
		c-0.2-0.3-0.5-0.5-1-0.5c-0.4,0-0.8,0.2-1,0.5c-0.2,0.3-0.3,0.9-0.3,1.6v2.3c0,0.8,0.1,1.3,0.3,1.7s0.5,0.6,1,0.6s0.8-0.2,1-0.5
		c0.2-0.4,0.3-0.9,0.3-1.6L538.5,87.1L538.5,87.1z"/>
</g>
<g class="st2">
	<path class="st4" d="M501.6,71.9v-9.4h2.9c0.8,0,1.6,0.2,2.2,0.6s1.2,0.9,1.5,1.6c0.4,0.7,0.5,1.5,0.5,2.3v0.4
		c0,0.9-0.2,1.7-0.5,2.3c-0.4,0.7-0.9,1.2-1.5,1.6c-0.6,0.4-1.4,0.6-2.2,0.6C504.5,71.9,501.6,71.9,501.6,71.9z M503.5,64.1v6.3h0.9
		c0.8,0,1.3-0.2,1.7-0.8s0.6-1.2,0.6-2.1V67c0-0.9-0.2-1.7-0.6-2.2s-1-0.7-1.7-0.7L503.5,64.1L503.5,64.1z"/>
	<path class="st4" d="M515.9,67.8h-3.7v2.5h4.4v1.6h-6.3v-9.4h6.3v1.6h-4.4v2.2h3.7V67.8z"/>
	<path class="st4" d="M523,70h-3.4l-0.6,1.9h-2.1l3.5-9.4h1.8l3.5,9.4h-2.1L523,70z M520.1,68.4h2.3l-1.2-3.5L520.1,68.4z"/>
	<path class="st4" d="M528.5,70.3h4.1v1.6h-6.1v-9.4h1.9L528.5,70.3L528.5,70.3z"/>
	<path class="st4" d="M538.6,69.4c0-0.4-0.1-0.6-0.4-0.8s-0.7-0.4-1.4-0.6c-0.7-0.2-1.2-0.4-1.6-0.6c-1.1-0.6-1.6-1.3-1.6-2.3
		c0-0.5,0.1-1,0.4-1.4c0.3-0.4,0.7-0.7,1.2-0.9s1.1-0.3,1.8-0.3c0.7,0,1.3,0.1,1.8,0.4c0.5,0.2,0.9,0.6,1.2,1s0.4,0.9,0.4,1.5h-1.9
		c0-0.4-0.1-0.8-0.4-1c-0.3-0.2-0.7-0.4-1.1-0.4c-0.5,0-0.8,0.1-1.1,0.3c-0.3,0.2-0.4,0.5-0.4,0.8c0,0.3,0.2,0.6,0.5,0.8
		s0.8,0.4,1.4,0.6c1.1,0.3,1.9,0.8,2.4,1.2s0.8,1.1,0.8,1.8c0,0.8-0.3,1.5-0.9,1.9c-0.6,0.5-1.5,0.7-2.5,0.7c-0.7,0-1.4-0.1-2-0.4
		c-0.6-0.3-1-0.6-1.4-1.1s-0.5-1-0.5-1.6h2c0,1,0.6,1.6,1.9,1.6c0.5,0,0.8-0.1,1.1-0.3C538.5,70,538.6,69.8,538.6,69.4z"/>
</g>
<g class="st2">
	<path class="st0" d="M10.9,341.4H4.4v-1.3l3-3.2c0.4-0.5,0.7-0.9,0.9-1.2s0.3-0.7,0.3-1c0-0.4-0.1-0.8-0.3-1
		c-0.2-0.2-0.5-0.4-0.9-0.4c-0.4,0-0.8,0.1-1,0.4c-0.2,0.3-0.4,0.7-0.4,1.1H4.2c0-0.6,0.1-1.1,0.4-1.6c0.3-0.5,0.7-0.8,1.2-1.1
		c0.5-0.3,1.1-0.4,1.7-0.4c1,0,1.7,0.2,2.3,0.7c0.5,0.5,0.8,1.1,0.8,2c0,0.5-0.1,0.9-0.4,1.4s-0.6,1-1.2,1.7l-2.1,2.3h4.1
		L10.9,341.4L10.9,341.4z"/>
	<path class="st0" d="M18.3,337.5c0,1.3-0.3,2.3-0.8,3c-0.5,0.7-1.3,1-2.4,1c-1,0-1.8-0.3-2.3-1c-0.6-0.7-0.8-1.6-0.8-2.9v-1.7
		c0-1.3,0.3-2.3,0.8-3s1.3-1,2.3-1s1.8,0.3,2.4,1s0.8,1.6,0.8,2.9C18.3,335.7,18.3,337.5,18.3,337.5z M16.5,335.6
		c0-0.8-0.1-1.4-0.3-1.7s-0.6-0.5-1-0.5c-0.4,0-0.8,0.2-1,0.5c-0.2,0.3-0.3,0.9-0.3,1.6v2.3c0,0.8,0.1,1.3,0.3,1.7s0.6,0.6,1,0.6
		s0.8-0.2,1-0.5c0.2-0.4,0.3-0.9,0.3-1.6L16.5,335.6L16.5,335.6z"/>
	<path class="st0" d="M25.9,337.5c0,1.3-0.3,2.3-0.8,3c-0.5,0.7-1.3,1-2.4,1c-1,0-1.8-0.3-2.4-1c-0.5-0.7-0.8-1.6-0.8-2.9v-1.7
		c0-1.3,0.3-2.3,0.8-3c0.5-0.7,1.3-1,2.4-1s1.8,0.3,2.4,1s0.8,1.6,0.8,2.9C25.9,335.7,25.9,337.5,25.9,337.5z M24,335.6
		c0-0.8-0.1-1.4-0.3-1.7s-0.5-0.5-1-0.5c-0.4,0-0.8,0.2-1,0.5c-0.2,0.3-0.3,0.9-0.3,1.6v2.3c0,0.8,0.1,1.3,0.3,1.7s0.5,0.6,1,0.6
		s0.8-0.2,1-0.5c0.2-0.4,0.3-0.9,0.3-1.6L24,335.6L24,335.6z"/>
</g>
<g class="st2">
	<path class="st0" d="M9.9,290.9H11v1.5H9.9v2H8.1v-2H4.2l-0.1-1.2l3.9-6.2h1.9V290.9z M6,290.9h2.1v-3.3l-0.1,0.2L6,290.9z"/>
	<path class="st0" d="M18.3,290.6c0,1.3-0.3,2.3-0.8,3c-0.5,0.7-1.3,1-2.4,1c-1,0-1.8-0.3-2.3-1c-0.6-0.7-0.8-1.6-0.8-2.9V289
		c0-1.3,0.3-2.3,0.8-3s1.3-1,2.3-1s1.8,0.3,2.4,1s0.8,1.6,0.8,2.9C18.3,288.8,18.3,290.6,18.3,290.6z M16.5,288.7
		c0-0.8-0.1-1.4-0.3-1.7s-0.6-0.5-1-0.5c-0.4,0-0.8,0.2-1,0.5c-0.2,0.3-0.3,0.9-0.3,1.6v2.3c0,0.8,0.1,1.3,0.3,1.7s0.6,0.6,1,0.6
		s0.8-0.2,1-0.5c0.2-0.4,0.3-0.9,0.3-1.6L16.5,288.7L16.5,288.7z"/>
	<path class="st0" d="M25.9,290.6c0,1.3-0.3,2.3-0.8,3c-0.5,0.7-1.3,1-2.4,1c-1,0-1.8-0.3-2.4-1c-0.5-0.7-0.8-1.6-0.8-2.9V289
		c0-1.3,0.3-2.3,0.8-3c0.5-0.7,1.3-1,2.4-1s1.8,0.3,2.4,1s0.8,1.6,0.8,2.9C25.9,288.9,25.9,290.6,25.9,290.6z M24,288.7
		c0-0.8-0.1-1.4-0.3-1.7s-0.5-0.5-1-0.5c-0.4,0-0.8,0.2-1,0.5c-0.2,0.3-0.3,0.9-0.3,1.6v2.3c0,0.8,0.1,1.3,0.3,1.7s0.5,0.6,1,0.6
		s0.8-0.2,1-0.5c0.2-0.4,0.3-0.9,0.3-1.6L24,288.7L24,288.7z"/>
</g>
<g class="st2">
	<path class="st0" d="M9.5,238.1v1.5H9.3c-0.8,0-1.5,0.2-2,0.7c-0.5,0.4-0.8,1-0.9,1.8c0.5-0.5,1.1-0.8,1.9-0.8
		c0.8,0,1.5,0.3,1.9,0.9c0.5,0.6,0.7,1.4,0.7,2.3c0,0.6-0.1,1.2-0.4,1.7s-0.6,0.9-1.1,1.1s-1,0.4-1.6,0.4c-1,0-1.8-0.3-2.4-1
		s-0.9-1.6-0.9-2.8v-0.7c0-1,0.2-1.9,0.6-2.7s0.9-1.4,1.7-1.8c0.7-0.4,1.6-0.6,2.5-0.6L9.5,238.1L9.5,238.1z M7.7,242.8
		c-0.3,0-0.6,0.1-0.8,0.2c-0.2,0.2-0.4,0.4-0.5,0.6v0.6c0,0.6,0.1,1.1,0.4,1.5s0.6,0.5,1,0.5c0.4,0,0.7-0.2,1-0.5
		c0.2-0.3,0.4-0.7,0.4-1.2c0-0.5-0.1-0.9-0.4-1.2C8.4,243,8.1,242.8,7.7,242.8z"/>
	<path class="st0" d="M18.3,243.7c0,1.3-0.3,2.3-0.8,3c-0.5,0.7-1.3,1-2.4,1c-1,0-1.8-0.3-2.3-1c-0.6-0.7-0.8-1.6-0.8-2.9v-1.7
		c0-1.3,0.3-2.3,0.8-3s1.3-1,2.3-1s1.8,0.3,2.4,1s0.8,1.6,0.8,2.9C18.3,242,18.3,243.7,18.3,243.7z M16.5,241.8
		c0-0.8-0.1-1.4-0.3-1.7c-0.2-0.4-0.6-0.5-1-0.5c-0.4,0-0.8,0.2-1,0.5c-0.2,0.3-0.3,0.9-0.3,1.6v2.3c0,0.8,0.1,1.3,0.3,1.7
		s0.6,0.6,1,0.6s0.8-0.2,1-0.5c0.2-0.4,0.3-0.9,0.3-1.6L16.5,241.8L16.5,241.8z"/>
	<path class="st0" d="M25.9,243.7c0,1.3-0.3,2.3-0.8,3c-0.5,0.7-1.3,1-2.4,1c-1,0-1.8-0.3-2.4-1c-0.5-0.7-0.8-1.6-0.8-2.9v-1.7
		c0-1.3,0.3-2.3,0.8-3c0.5-0.7,1.3-1,2.4-1s1.8,0.3,2.4,1s0.8,1.6,0.8,2.9C25.9,242,25.9,243.7,25.9,243.7z M24,241.8
		c0-0.8-0.1-1.4-0.3-1.7c-0.2-0.4-0.5-0.5-1-0.5c-0.4,0-0.8,0.2-1,0.5c-0.2,0.3-0.3,0.9-0.3,1.6v2.3c0,0.8,0.1,1.3,0.3,1.7
		s0.5,0.6,1,0.6s0.8-0.2,1-0.5c0.2-0.4,0.3-0.9,0.3-1.6L24,241.8L24,241.8z"/>
</g>
<g class="st2">
	<path class="st0" d="M10.5,193.8c0,0.4-0.1,0.9-0.3,1.2c-0.2,0.4-0.5,0.6-0.9,0.9c0.4,0.2,0.8,0.5,1.1,0.9c0.3,0.4,0.4,0.8,0.4,1.4
		c0,0.8-0.3,1.5-0.9,2c-0.6,0.5-1.3,0.7-2.3,0.7s-1.8-0.2-2.3-0.7s-0.9-1.1-0.9-2c0-0.5,0.1-1,0.4-1.4c0.3-0.4,0.6-0.7,1.1-0.9
		c-0.4-0.2-0.7-0.5-0.9-0.9s-0.3-0.8-0.3-1.2c0-0.8,0.3-1.4,0.8-1.9c0.5-0.5,1.3-0.7,2.2-0.7s1.6,0.2,2.2,0.7
		C10.3,192.4,10.5,193,10.5,193.8z M8.9,198c0-0.4-0.1-0.7-0.4-1s-0.6-0.4-0.9-0.4c-0.4,0-0.7,0.1-0.9,0.4s-0.4,0.6-0.4,1
		s0.1,0.7,0.3,1c0.2,0.2,0.6,0.4,1,0.4c0.4,0,0.7-0.1,0.9-0.4S8.9,198.4,8.9,198z M8.7,193.9c0-0.4-0.1-0.7-0.3-0.9
		c-0.2-0.2-0.5-0.3-0.8-0.3c-0.3,0-0.6,0.1-0.8,0.3s-0.3,0.5-0.3,0.9s0.1,0.7,0.3,0.9c0.2,0.2,0.5,0.3,0.8,0.3s0.6-0.1,0.8-0.3
		C8.6,194.6,8.7,194.3,8.7,193.9z"/>
	<path class="st0" d="M18.3,196.8c0,1.3-0.3,2.3-0.8,3c-0.5,0.7-1.3,1-2.4,1c-1,0-1.8-0.3-2.3-1c-0.6-0.7-0.8-1.6-0.8-2.9v-1.7
		c0-1.3,0.3-2.3,0.8-3s1.3-1,2.3-1s1.8,0.3,2.4,1s0.8,1.6,0.8,2.9C18.3,195.1,18.3,196.8,18.3,196.8z M16.5,194.9
		c0-0.8-0.1-1.4-0.3-1.7c-0.2-0.4-0.6-0.5-1-0.5c-0.4,0-0.8,0.2-1,0.5c-0.2,0.3-0.3,0.9-0.3,1.6v2.3c0,0.8,0.1,1.3,0.3,1.7
		c0.2,0.4,0.6,0.6,1,0.6s0.8-0.2,1-0.5c0.2-0.4,0.3-0.9,0.3-1.6L16.5,194.9L16.5,194.9z"/>
	<path class="st0" d="M25.9,196.8c0,1.3-0.3,2.3-0.8,3c-0.5,0.7-1.3,1-2.4,1c-1,0-1.8-0.3-2.4-1c-0.5-0.7-0.8-1.6-0.8-2.9v-1.7
		c0-1.3,0.3-2.3,0.8-3c0.5-0.7,1.3-1,2.4-1s1.8,0.3,2.4,1s0.8,1.6,0.8,2.9C25.9,195.1,25.9,196.8,25.9,196.8z M24,194.9
		c0-0.8-0.1-1.4-0.3-1.7c-0.2-0.4-0.5-0.5-1-0.5c-0.4,0-0.8,0.2-1,0.5c-0.2,0.3-0.3,0.9-0.3,1.6v2.3c0,0.8,0.1,1.3,0.3,1.7
		c0.2,0.4,0.5,0.6,1,0.6s0.8-0.2,1-0.5c0.2-0.4,0.3-0.9,0.3-1.6L24,194.9L24,194.9z"/>
</g>
<g class="st2">
	<path class="st0" d="M8.9,153.9H7.1v-7.2l-2.2,0.7v-1.5l3.9-1.4h0.2L8.9,153.9L8.9,153.9z"/>
	<path class="st0" d="M12.6,156.2l-1-0.5l0.2-0.4c0.3-0.5,0.4-1.1,0.4-1.6v-1.4h1.6l0,1.3c0,0.5-0.1,1-0.4,1.4
		C13.2,155.5,12.9,155.9,12.6,156.2z"/>
	<path class="st0" d="M21.6,150c0,1.3-0.3,2.3-0.8,3c-0.5,0.7-1.3,1-2.4,1c-1,0-1.8-0.3-2.4-1c-0.6-0.7-0.8-1.6-0.8-2.9v-1.7
		c0-1.3,0.3-2.3,0.8-3c0.5-0.7,1.3-1,2.4-1s1.8,0.3,2.4,1s0.8,1.6,0.8,2.9V150z M19.7,148.1c0-0.8-0.1-1.4-0.3-1.7
		c-0.2-0.4-0.5-0.5-1-0.5c-0.4,0-0.8,0.2-1,0.5c-0.2,0.3-0.3,0.9-0.3,1.6v2.3c0,0.8,0.1,1.3,0.3,1.7c0.2,0.4,0.5,0.6,1,0.6
		s0.8-0.2,1-0.5c0.2-0.4,0.3-0.9,0.3-1.6L19.7,148.1L19.7,148.1z"/>
	<path class="st0" d="M29.1,150c0,1.3-0.3,2.3-0.8,3c-0.5,0.7-1.3,1-2.4,1c-1,0-1.8-0.3-2.4-1c-0.5-0.7-0.8-1.6-0.8-2.9v-1.7
		c0-1.3,0.3-2.3,0.8-3c0.5-0.7,1.3-1,2.4-1s1.8,0.3,2.4,1s0.8,1.6,0.8,2.9V150z M27.3,148.1c0-0.8-0.1-1.4-0.3-1.7
		c-0.2-0.4-0.5-0.5-1-0.5c-0.4,0-0.8,0.2-1,0.5c-0.2,0.3-0.3,0.9-0.3,1.6v2.3c0,0.8,0.1,1.3,0.3,1.7c0.2,0.4,0.5,0.6,1,0.6
		s0.8-0.2,1-0.5c0.2-0.4,0.3-0.9,0.3-1.6L27.3,148.1L27.3,148.1z"/>
	<path class="st0" d="M36.7,150c0,1.3-0.3,2.3-0.8,3s-1.3,1-2.4,1c-1,0-1.8-0.3-2.4-1c-0.5-0.7-0.8-1.6-0.8-2.9v-1.7
		c0-1.3,0.3-2.3,0.8-3c0.5-0.7,1.3-1,2.4-1s1.8,0.3,2.3,1c0.5,0.7,0.8,1.6,0.8,2.9V150z M34.9,148.1c0-0.8-0.1-1.4-0.3-1.7
		c-0.2-0.4-0.5-0.5-1-0.5c-0.4,0-0.8,0.2-1,0.5c-0.2,0.3-0.3,0.9-0.3,1.6v2.3c0,0.8,0.1,1.3,0.3,1.7c0.2,0.4,0.5,0.6,1,0.6
		s0.8-0.2,1-0.5c0.2-0.4,0.3-0.9,0.3-1.6L34.9,148.1L34.9,148.1z"/>
</g>
<g class="st2">
	<path class="st0" d="M8.9,107H7.1v-7.2l-2.2,0.7V99l3.9-1.4h0.2L8.9,107L8.9,107z"/>
	<path class="st0" d="M12.6,109.3l-1-0.5l0.2-0.4c0.3-0.5,0.4-1.1,0.4-1.6v-1.4h1.6l0,1.3c0,0.5-0.1,1-0.4,1.4
		C13.2,108.6,12.9,109,12.6,109.3z"/>
	<path class="st0" d="M21.7,107h-6.4v-1.3l3-3.2c0.4-0.4,0.7-0.8,0.9-1.2c0.2-0.3,0.3-0.7,0.3-1c0-0.4-0.1-0.8-0.3-1
		S18.7,99,18.3,99c-0.4,0-0.8,0.1-1,0.4c-0.2,0.3-0.4,0.7-0.4,1.1H15c0-0.6,0.1-1.1,0.4-1.6c0.3-0.5,0.7-0.8,1.2-1.1
		c0.5-0.3,1.1-0.4,1.7-0.4c1,0,1.7,0.2,2.3,0.7s0.8,1.1,0.8,2c0,0.5-0.1,0.9-0.4,1.4c-0.2,0.5-0.6,1.1-1.2,1.7l-2.1,2.3h4.1
		L21.7,107L21.7,107z"/>
	<path class="st0" d="M29.1,103.1c0,1.3-0.3,2.3-0.8,3c-0.5,0.7-1.3,1-2.4,1c-1,0-1.8-0.3-2.4-1c-0.5-0.7-0.8-1.6-0.8-2.9v-1.7
		c0-1.3,0.3-2.3,0.8-3c0.5-0.7,1.3-1,2.4-1s1.8,0.3,2.4,1c0.5,0.7,0.8,1.6,0.8,2.9C29.1,101.3,29.1,103.1,29.1,103.1z M27.3,101.2
		c0-0.8-0.1-1.3-0.3-1.7S26.4,99,26,99c-0.4,0-0.8,0.2-1,0.5c-0.2,0.3-0.3,0.9-0.3,1.6v2.3c0,0.8,0.1,1.3,0.3,1.7s0.5,0.6,1,0.6
		s0.8-0.2,1-0.5c0.2-0.4,0.3-0.9,0.3-1.6L27.3,101.2L27.3,101.2z"/>
	<path class="st0" d="M36.7,103.1c0,1.3-0.3,2.3-0.8,3c-0.5,0.7-1.3,1-2.4,1c-1,0-1.8-0.3-2.4-1c-0.5-0.7-0.8-1.6-0.8-2.9v-1.7
		c0-1.3,0.3-2.3,0.8-3c0.5-0.7,1.3-1,2.4-1s1.8,0.3,2.3,1c0.5,0.7,0.8,1.6,0.8,2.9C36.7,101.3,36.7,103.1,36.7,103.1z M34.9,101.2
		c0-0.8-0.1-1.3-0.3-1.7S34,99,33.6,99c-0.4,0-0.8,0.2-1,0.5c-0.2,0.3-0.3,0.9-0.3,1.6v2.3c0,0.8,0.1,1.3,0.3,1.7
		c0.2,0.4,0.5,0.6,1,0.6s0.8-0.2,1-0.5c0.2-0.4,0.3-0.9,0.3-1.6L34.9,101.2L34.9,101.2z"/>
</g>
<g class="st2">
	<path class="st0" d="M8.9,60.1H7.1v-7.2l-2.2,0.7v-1.5l3.9-1.4h0.2L8.9,60.1L8.9,60.1z"/>
	<path class="st0" d="M12.6,62.5l-1-0.5l0.2-0.4c0.3-0.5,0.4-1.1,0.4-1.6v-1.4h1.6l0,1.3c0,0.5-0.1,1-0.4,1.4S12.9,62.2,12.6,62.5z"
		/>
	<path class="st0" d="M20.8,56.6h1.1v1.5h-1.1v2h-1.9v-2H15l-0.1-1.2l3.9-6.2h1.9L20.8,56.6L20.8,56.6z M16.8,56.6h2.1v-3.3
		l-0.1,0.2L16.8,56.6z"/>
	<path class="st0" d="M29.1,56.2c0,1.3-0.3,2.3-0.8,3c-0.5,0.7-1.3,1-2.4,1c-1,0-1.8-0.3-2.4-1c-0.5-0.7-0.8-1.6-0.8-2.9v-1.7
		c0-1.3,0.3-2.3,0.8-3c0.5-0.7,1.3-1,2.4-1s1.8,0.3,2.4,1s0.8,1.6,0.8,2.9C29.1,54.5,29.1,56.2,29.1,56.2z M27.3,54.3
		c0-0.8-0.1-1.3-0.3-1.7s-0.5-0.5-1-0.5c-0.4,0-0.8,0.2-1,0.5s-0.3,0.9-0.3,1.6v2.3c0,0.8,0.1,1.3,0.3,1.7s0.5,0.6,1,0.6
		s0.8-0.2,1-0.5c0.2-0.4,0.3-0.9,0.3-1.6L27.3,54.3L27.3,54.3z"/>
	<path class="st0" d="M36.7,56.2c0,1.3-0.3,2.3-0.8,3c-0.5,0.7-1.3,1-2.4,1c-1,0-1.8-0.3-2.4-1c-0.5-0.7-0.8-1.6-0.8-2.9v-1.7
		c0-1.3,0.3-2.3,0.8-3c0.5-0.7,1.3-1,2.4-1s1.8,0.3,2.3,1c0.5,0.7,0.8,1.6,0.8,2.9C36.7,54.5,36.7,56.2,36.7,56.2z M34.9,54.3
		c0-0.8-0.1-1.3-0.3-1.7s-0.5-0.5-1-0.5c-0.4,0-0.8,0.2-1,0.5s-0.3,0.9-0.3,1.6v2.3c0,0.8,0.1,1.3,0.3,1.7c0.2,0.4,0.5,0.6,1,0.6
		s0.8-0.2,1-0.5c0.2-0.4,0.3-0.9,0.3-1.6L34.9,54.3L34.9,54.3z"/>
</g>
<g class="st2">
	<path class="st0" d="M10.3,16.9H6.5v3.8H4.6v-9.4h6.1v1.6H6.5v2.4h3.7C10.3,15.3,10.3,16.9,10.3,16.9z"/>
	<path class="st0" d="M19,11.3v6.2c0,1-0.3,1.8-1,2.4s-1.5,0.9-2.6,0.9c-1.1,0-2-0.3-2.6-0.9s-1-1.4-1-2.4v-6.3h1.9v6.2
		c0,0.6,0.1,1.1,0.4,1.3c0.3,0.3,0.7,0.4,1.2,0.4c1.1,0,1.6-0.6,1.7-1.7v-6.3H19z"/>
	<path class="st0" d="M28.2,20.7h-1.9l-3.8-6.2v6.2h-1.9v-9.4h1.9l3.8,6.2v-6.2h1.9V20.7z"/>
	<path class="st0" d="M29.9,20.7v-9.4h2.9c0.8,0,1.6,0.2,2.2,0.6c0.7,0.4,1.2,0.9,1.5,1.6s0.5,1.5,0.5,2.3v0.4
		c0,0.9-0.2,1.6-0.5,2.3s-0.9,1.2-1.5,1.6s-1.4,0.6-2.2,0.6C32.8,20.7,29.9,20.7,29.9,20.7z M31.8,12.9v6.3h0.9
		c0.8,0,1.3-0.2,1.7-0.8s0.6-1.2,0.6-2.1v-0.5c0-1-0.2-1.7-0.6-2.2s-1-0.7-1.7-0.7L31.8,12.9L31.8,12.9z"/>
	<path class="st0" d="M40.6,20.7h-1.9v-9.4h1.9V20.7z"/>
	<path class="st0" d="M50,20.7h-1.9l-3.8-6.2v6.2h-1.9v-9.4h1.9l3.8,6.2v-6.2H50V20.7z"/>
	<path class="st0" d="M59.2,19.5c-0.3,0.4-0.8,0.7-1.5,1c-0.6,0.2-1.3,0.3-2.1,0.3c-0.8,0-1.5-0.2-2.2-0.5c-0.6-0.4-1.1-0.9-1.4-1.5
		c-0.3-0.7-0.5-1.5-0.5-2.4v-0.6c0-0.9,0.2-1.8,0.5-2.4s0.8-1.2,1.4-1.6c0.6-0.4,1.3-0.5,2.1-0.5c1.1,0,2,0.3,2.6,0.8s1,1.3,1.1,2.3
		h-1.9c-0.1-0.5-0.3-0.9-0.6-1.2s-0.7-0.4-1.2-0.4c-0.7,0-1.2,0.2-1.5,0.8s-0.5,1.2-0.5,2.2v0.6c0,1,0.2,1.7,0.6,2.2
		c0.4,0.5,0.9,0.8,1.6,0.8c0.7,0,1.2-0.1,1.6-0.5v-1.6h-1.8v-1.4h3.7C59.2,15.8,59.2,19.5,59.2,19.5z"/>
</g>
<g class="st2">
	<path class="st0" d="M9.9,35.8H6.5l-0.6,1.9H3.8l3.5-9.4h1.8l3.5,9.4h-2.1L9.9,35.8z M7,34.2h2.4l-1.2-3.5L7,34.2z"/>
	<path class="st0" d="M16,28.3l2.4,6.8l2.4-6.8h2.5v9.4h-2v-2.6l0.2-4.4l-2.5,7h-1.3l-2.5-7l0.2,4.4v2.6h-1.9v-9.4H16z"/>
	<path class="st0" d="M32.8,33.2c0,0.9-0.2,1.7-0.5,2.4c-0.3,0.7-0.8,1.2-1.4,1.6s-1.3,0.6-2.1,0.6c-0.8,0-1.5-0.2-2.1-0.6
		s-1.1-0.9-1.4-1.6c-0.3-0.7-0.5-1.5-0.5-2.4v-0.5c0-0.9,0.2-1.7,0.5-2.5s0.8-1.2,1.4-1.6c0.6-0.4,1.3-0.6,2.1-0.6
		c0.8,0,1.5,0.2,2.1,0.6s1.1,0.9,1.4,1.6c0.3,0.7,0.5,1.5,0.5,2.4C32.8,32.8,32.8,33.2,32.8,33.2z M30.9,32.8c0-1-0.2-1.7-0.5-2.2
		s-0.9-0.8-1.5-0.8s-1.1,0.3-1.5,0.8c-0.4,0.5-0.5,1.2-0.5,2.2v0.5c0,1,0.2,1.7,0.5,2.2s0.9,0.8,1.5,0.8c0.6,0,1.1-0.3,1.5-0.8
		c0.4-0.5,0.5-1.3,0.5-2.2C30.9,33.3,30.9,32.8,30.9,32.8z"/>
	<path class="st0" d="M41.3,28.3v6.2c0,1-0.3,1.8-1,2.4s-1.5,0.9-2.6,0.9c-1.1,0-2-0.3-2.6-0.9c-0.7-0.6-1-1.4-1-2.4v-6.3h1.9v6.2
		c0,0.6,0.2,1.1,0.4,1.3c0.3,0.3,0.7,0.4,1.2,0.4c1.1,0,1.6-0.6,1.7-1.7v-6.3C39.4,28.3,41.3,28.3,41.3,28.3z"/>
	<path class="st0" d="M50.6,37.7h-1.9l-3.8-6.2v6.2h-1.9v-9.4h1.9l3.8,6.2v-6.2h1.9V37.7z"/>
	<path class="st0" d="M59.2,29.9h-2.9v7.8h-1.9v-7.8h-2.8v-1.6h7.7V29.9z"/>
</g>
<polyline class="st6" points="54.8,309.9 94.4,320.5 134,294.5 173.6,256.7 213.1,172.8 252.7,99.6 292.3,144.5 332.5,144.5 
	371.5,151.6 411,163.4 450.6,76 490.3,189.4 "/>
<g class="st2">
	<path class="st5" d="M49.9,377.5H48v-7.2l-1.8,0.7v-1.5l3.4-1.4h0.2L49.9,377.5L49.9,377.5z"/>
	<path class="st5" d="M56.9,368v1.5h-0.1c-0.7,0-1.2,0.2-1.6,0.6c-0.4,0.4-0.6,1-0.7,1.7c0.4-0.4,0.9-0.7,1.5-0.7
		c0.7,0,1.2,0.3,1.6,0.9s0.6,1.4,0.6,2.3c0,0.6-0.1,1.2-0.3,1.7c-0.2,0.5-0.6,0.9-1,1.1s-0.9,0.4-1.4,0.4c-0.8,0-1.5-0.3-2-1
		s-0.8-1.6-0.8-2.8v-0.7c0-1,0.2-2,0.5-2.7s0.8-1.4,1.4-1.8c0.6-0.4,1.3-0.6,2.2-0.6L56.9,368L56.9,368z M55.3,372.6
		c-0.2,0-0.4,0.1-0.6,0.2c-0.2,0.1-0.3,0.3-0.3,0.5v0.7c0,0.7,0.1,1.2,0.3,1.5s0.4,0.5,0.7,0.5s0.5-0.2,0.7-0.5
		c0.2-0.3,0.3-0.7,0.3-1.2c0-0.5-0.1-0.9-0.3-1.2C55.9,372.8,55.6,372.6,55.3,372.6z"/>
	<path class="st5" d="M63.6,368v1.5h-0.1c-0.7,0-1.2,0.2-1.6,0.6c-0.4,0.4-0.6,1-0.7,1.7c0.4-0.4,0.9-0.7,1.5-0.7
		c0.7,0,1.2,0.3,1.6,0.9s0.6,1.4,0.6,2.3c0,0.6-0.1,1.2-0.3,1.7s-0.6,0.9-1,1.1s-0.9,0.4-1.4,0.4c-0.8,0-1.5-0.3-2-1
		s-0.8-1.6-0.8-2.8v-0.7c0-1,0.2-2,0.5-2.7s0.8-1.4,1.4-1.8c0.6-0.4,1.3-0.6,2.2-0.6L63.6,368L63.6,368z M62,372.6
		c-0.2,0-0.4,0.1-0.6,0.2c-0.2,0.1-0.3,0.3-0.3,0.5v0.7c0,0.7,0.1,1.2,0.3,1.5s0.4,0.5,0.7,0.5s0.5-0.2,0.7-0.5
		c0.2-0.3,0.3-0.7,0.3-1.2c0-0.5-0.1-0.9-0.3-1.2C62.6,372.8,62.3,372.6,62,372.6z"/>
</g>
<g class="st2">
	<path class="st5" d="M91.1,377.5h-5.6v-1.3l2.5-3.2c0.3-0.4,0.6-0.8,0.7-1.2c0.2-0.3,0.2-0.7,0.2-1c0-0.4-0.1-0.8-0.2-1
		c-0.1-0.2-0.3-0.4-0.6-0.4c-0.3,0-0.5,0.1-0.7,0.4c-0.2,0.3-0.3,0.7-0.3,1.2h-1.8c0-0.6,0.1-1.1,0.4-1.6s0.6-0.9,1-1.1
		c0.4-0.3,0.9-0.4,1.5-0.4c0.8,0,1.5,0.2,2,0.7c0.5,0.5,0.7,1.1,0.7,2c0,0.5-0.1,1.1-0.4,1.6s-0.7,1.2-1.4,2l-1.2,1.7h3.2
		L91.1,377.5L91.1,377.5z"/>
	<path class="st5" d="M96.6,368v1.5h-0.1c-0.7,0-1.2,0.2-1.6,0.6c-0.4,0.4-0.6,1-0.7,1.7c0.4-0.4,0.9-0.7,1.5-0.7
		c0.7,0,1.2,0.3,1.6,0.9c0.4,0.6,0.6,1.4,0.6,2.3c0,0.6-0.1,1.2-0.3,1.7s-0.6,0.9-1,1.1c-0.4,0.3-0.9,0.4-1.4,0.4
		c-0.8,0-1.5-0.3-2.1-1s-0.8-1.6-0.8-2.8v-0.7c0-1,0.2-2,0.5-2.7c0.3-0.8,0.8-1.4,1.4-1.8c0.6-0.4,1.3-0.6,2.2-0.6L96.6,368
		L96.6,368z M95.1,372.6c-0.2,0-0.4,0.1-0.6,0.2c-0.2,0.1-0.3,0.3-0.3,0.5v0.7c0,0.7,0.1,1.2,0.3,1.5c0.2,0.3,0.4,0.5,0.7,0.5
		c0.3,0,0.5-0.2,0.7-0.5c0.2-0.3,0.3-0.7,0.3-1.2c0-0.5-0.1-0.9-0.3-1.2C95.6,372.8,95.4,372.6,95.1,372.6z"/>
	<path class="st5" d="M103.3,368v1.5h-0.1c-0.7,0-1.2,0.2-1.6,0.6c-0.4,0.4-0.6,1-0.7,1.7c0.4-0.4,0.9-0.7,1.5-0.7
		c0.7,0,1.2,0.3,1.6,0.9c0.4,0.6,0.6,1.4,0.6,2.3c0,0.6-0.1,1.2-0.3,1.7s-0.6,0.9-1,1.1c-0.4,0.3-0.9,0.4-1.4,0.4
		c-0.8,0-1.5-0.3-2.1-1s-0.8-1.6-0.8-2.8v-0.7c0-1,0.2-2,0.5-2.7c0.3-0.8,0.8-1.4,1.4-1.8c0.6-0.4,1.3-0.6,2.2-0.6L103.3,368
		L103.3,368z M101.8,372.6c-0.2,0-0.4,0.1-0.6,0.2c-0.2,0.1-0.3,0.3-0.3,0.5v0.7c0,0.7,0.1,1.2,0.3,1.5c0.2,0.3,0.4,0.5,0.7,0.5
		c0.3,0,0.5-0.2,0.7-0.5c0.2-0.3,0.3-0.7,0.3-1.2c0-0.5-0.1-0.9-0.3-1.2C102.3,372.8,102.1,372.6,101.8,372.6z"/>
</g>
<g class="st2">
	<path class="st5" d="M130.8,377.5h-5.6v-1.3l2.5-3.2c0.3-0.4,0.6-0.8,0.7-1.2c0.1-0.3,0.2-0.7,0.2-1c0-0.4-0.1-0.8-0.2-1
		c-0.1-0.2-0.4-0.4-0.6-0.4c-0.3,0-0.5,0.1-0.7,0.4c-0.2,0.3-0.3,0.7-0.3,1.2h-1.8c0-0.6,0.1-1.1,0.4-1.6s0.6-0.9,1-1.1
		c0.4-0.3,0.9-0.4,1.5-0.4c0.8,0,1.5,0.2,2,0.7c0.5,0.5,0.7,1.1,0.7,2c0,0.5-0.1,1.1-0.4,1.6s-0.7,1.2-1.4,2l-1.2,1.7h3.2
		L130.8,377.5L130.8,377.5L130.8,377.5z"/>
	<path class="st5" d="M137.5,369.1l-3,8.4h-1.9l3-7.9h-3.8V368h5.7L137.5,369.1L137.5,369.1z"/>
	<path class="st5" d="M142.2,373.8c-0.4,0.4-0.8,0.6-1.3,0.6c-0.7,0-1.3-0.3-1.7-0.9c-0.4-0.6-0.6-1.3-0.6-2.3
		c0-0.6,0.1-1.2,0.4-1.7s0.6-0.9,1-1.2s0.9-0.4,1.4-0.4c0.5,0,1,0.2,1.4,0.5s0.7,0.8,1,1.4s0.3,1.3,0.3,2v0.7c0,1.6-0.4,2.9-1.1,3.8
		c-0.7,0.9-1.7,1.4-3,1.4h-0.2v-1.6h0.1c0.7,0,1.3-0.2,1.6-0.6C141.9,375,142.2,374.5,142.2,373.8z M141.4,373
		c0.4,0,0.6-0.2,0.8-0.7v-0.8c0-0.6-0.1-1.1-0.3-1.5s-0.4-0.5-0.6-0.5s-0.5,0.2-0.6,0.5c-0.2,0.4-0.2,0.8-0.2,1.3
		c0,0.5,0.1,1,0.3,1.3C140.9,372.8,141.1,373,141.4,373z"/>
</g>
<g class="st2">
	<path class="st5" d="M165.2,372.8l0.5-4.8h4.6v1.6h-3.1l-0.2,2c0.4-0.2,0.7-0.4,1.1-0.4c0.8,0,1.4,0.3,1.8,0.8
		c0.4,0.6,0.6,1.3,0.6,2.3c0,1-0.2,1.7-0.8,2.3s-1.2,0.9-2,0.9c-0.5,0-0.9-0.1-1.4-0.4c-0.4-0.2-0.8-0.6-1-1s-0.4-0.9-0.4-1.4h1.8
		c0,0.4,0.1,0.7,0.3,0.9s0.4,0.3,0.6,0.3c0.3,0,0.5-0.1,0.7-0.4c0.2-0.3,0.2-0.7,0.2-1.3c0-0.5-0.1-1-0.3-1.2
		c-0.2-0.3-0.5-0.4-0.8-0.4c-0.3,0-0.6,0.1-0.8,0.4l-0.1,0.2L165.2,372.8z"/>
	<path class="st5" d="M176.5,373.9h0.8v1.5h-0.8v2h-1.8v-2h-3.1l-0.1-1.2l3.2-6.2h1.8V373.9L176.5,373.9z M173.3,373.9h1.4v-3.1
		l0,0.1L173.3,373.9z"/>
	<path class="st5" d="M180,371.9h0.9c0.3,0,0.6-0.1,0.7-0.4c0.2-0.2,0.2-0.5,0.2-1c0-0.4-0.1-0.7-0.2-0.9s-0.4-0.3-0.6-0.3
		c-0.3,0-0.5,0.1-0.6,0.3c-0.2,0.2-0.2,0.4-0.2,0.8h-1.8c0-0.5,0.1-0.9,0.3-1.3c0.2-0.4,0.5-0.7,0.9-0.9s0.9-0.3,1.4-0.3
		c0.9,0,1.5,0.2,2,0.7s0.7,1.1,0.7,2c0,0.4-0.1,0.8-0.3,1.2s-0.5,0.6-0.9,0.8c0.4,0.2,0.8,0.5,1,0.9c0.2,0.4,0.3,0.8,0.3,1.3
		c0,0.8-0.3,1.5-0.8,2s-1.2,0.8-2.1,0.8c-0.8,0-1.5-0.2-2-0.8s-0.8-1.1-0.8-2h1.8c0,0.3,0.1,0.6,0.3,0.9c0.2,0.2,0.4,0.3,0.7,0.3
		c0.3,0,0.6-0.1,0.8-0.4c0.2-0.2,0.3-0.5,0.3-0.9c0-0.9-0.4-1.4-1.1-1.4H180L180,371.9L180,371.9z"/>
</g>
<g class="st2">
	<path class="st5" d="M204,372.8l0.5-4.8h4.6v1.6h-3.1l-0.2,2c0.4-0.2,0.7-0.4,1.1-0.4c0.8,0,1.4,0.3,1.8,0.8
		c0.4,0.6,0.6,1.3,0.6,2.3c0,1-0.2,1.7-0.8,2.3s-1.2,0.9-2,0.9c-0.5,0-0.9-0.1-1.4-0.4c-0.4-0.2-0.8-0.6-1-1s-0.4-0.9-0.4-1.4h1.8
		c0,0.4,0.1,0.7,0.3,0.9s0.4,0.3,0.6,0.3c0.3,0,0.5-0.1,0.7-0.4c0.2-0.3,0.2-0.7,0.2-1.3c0-0.5-0.1-1-0.3-1.2
		c-0.2-0.3-0.5-0.4-0.8-0.4c-0.3,0-0.6,0.1-0.8,0.4l-0.1,0.2L204,372.8z"/>
	<path class="st5" d="M210.7,372.8l0.5-4.8h4.6v1.6h-3.1l-0.2,2c0.4-0.2,0.7-0.4,1.1-0.4c0.8,0,1.4,0.3,1.8,0.8s0.6,1.3,0.6,2.3
		c0,1-0.2,1.7-0.8,2.3s-1.2,0.9-2,0.9c-0.5,0-0.9-0.1-1.4-0.4c-0.4-0.2-0.8-0.6-1-1s-0.4-0.9-0.4-1.4h1.8c0,0.4,0.1,0.7,0.3,0.9
		s0.4,0.3,0.6,0.3c0.3,0,0.5-0.1,0.7-0.4c0.2-0.3,0.2-0.7,0.2-1.3c0-0.5-0.1-1-0.3-1.2c-0.2-0.3-0.5-0.4-0.8-0.4
		c-0.3,0-0.6,0.1-0.8,0.4l-0.1,0.2L210.7,372.8z"/>
	<path class="st5" d="M217.4,372.8l0.5-4.8h4.6v1.6h-3.1l-0.2,2c0.4-0.2,0.7-0.4,1.1-0.4c0.8,0,1.4,0.3,1.8,0.8s0.6,1.3,0.6,2.3
		c0,1-0.2,1.7-0.8,2.3s-1.2,0.9-2,0.9c-0.5,0-0.9-0.1-1.4-0.4c-0.4-0.2-0.8-0.6-1-1s-0.4-0.9-0.4-1.4h1.8c0,0.4,0.1,0.7,0.3,0.9
		s0.4,0.3,0.6,0.3c0.3,0,0.5-0.1,0.7-0.4c0.2-0.3,0.2-0.7,0.2-1.3c0-0.5-0.1-1-0.3-1.2c-0.2-0.3-0.5-0.4-0.8-0.4
		c-0.3,0-0.6,0.1-0.8,0.4l-0.1,0.2L217.4,372.8z"/>
</g>
<g class="st2">
	<path class="st5" d="M244.2,377.5h-1.8v-7.2l-1.8,0.7v-1.5l3.4-1.4h0.2L244.2,377.5L244.2,377.5z"/>
	<path class="st5" d="M252.3,373.6c0,1.3-0.2,2.3-0.7,3s-1.1,1-2,1c-0.9,0-1.5-0.3-2-1s-0.7-1.6-0.7-2.9v-1.8c0-1.3,0.2-2.3,0.7-3
		s1.1-1,2-1s1.6,0.3,2,1s0.7,1.6,0.7,2.9V373.6L252.3,373.6z M250.5,371.6c0-0.7-0.1-1.3-0.2-1.7s-0.4-0.6-0.7-0.6
		c-0.6,0-0.9,0.7-0.9,2v2.3c0,0.8,0.1,1.3,0.2,1.7s0.4,0.6,0.7,0.6c0.3,0,0.5-0.2,0.7-0.5c0.1-0.4,0.2-0.9,0.2-1.6V371.6z"/>
	<path class="st5" d="M259.1,377.5h-5.6v-1.3l2.5-3.2c0.3-0.4,0.6-0.8,0.7-1.2c0.1-0.3,0.2-0.7,0.2-1c0-0.4-0.1-0.8-0.2-1
		c-0.1-0.2-0.4-0.4-0.6-0.4c-0.3,0-0.5,0.1-0.7,0.4c-0.2,0.3-0.3,0.7-0.3,1.2h-1.8c0-0.6,0.1-1.1,0.4-1.6s0.6-0.9,1-1.1
		c0.4-0.3,0.9-0.4,1.5-0.4c0.8,0,1.5,0.2,2,0.7c0.5,0.5,0.7,1.1,0.7,2c0,0.5-0.1,1.1-0.4,1.6s-0.7,1.2-1.4,2l-1.2,1.7h3.2
		L259.1,377.5L259.1,377.5z"/>
	<path class="st5" d="M260.4,372.8l0.5-4.8h4.6v1.6h-3l-0.2,2c0.4-0.2,0.7-0.4,1.1-0.4c0.8,0,1.4,0.3,1.8,0.8s0.6,1.3,0.6,2.3
		c0,1-0.2,1.7-0.8,2.3s-1.2,0.9-2,0.9c-0.5,0-1-0.1-1.4-0.4c-0.4-0.2-0.8-0.6-1-1c-0.2-0.4-0.4-0.9-0.4-1.4h1.8
		c0,0.4,0.1,0.7,0.3,0.9s0.4,0.3,0.6,0.3c0.3,0,0.5-0.1,0.7-0.4c0.2-0.3,0.2-0.7,0.2-1.3c0-0.5-0.1-1-0.3-1.2
		c-0.2-0.3-0.5-0.4-0.8-0.4c-0.3,0-0.6,0.1-0.8,0.4l-0.1,0.2L260.4,372.8z"/>
</g>
<g class="st2">
	<path class="st5" d="M283.9,377.5h-1.8v-7.2l-1.8,0.7v-1.5l3.4-1.4h0.2L283.9,377.5L283.9,377.5z"/>
	<path class="st5" d="M291.4,373.9h0.8v1.5h-0.8v2h-1.8v-2h-3.1l-0.1-1.2l3.2-6.2h1.8V373.9L291.4,373.9z M288.1,373.9h1.4v-3.1
		l0,0.1L288.1,373.9z"/>
	<path class="st5" d="M293.5,372.8l0.5-4.8h4.6v1.6h-3l-0.2,2c0.4-0.2,0.7-0.4,1.1-0.4c0.8,0,1.4,0.3,1.8,0.8s0.6,1.3,0.6,2.3
		c0,1-0.2,1.7-0.8,2.3s-1.2,0.9-2,0.9c-0.5,0-1-0.1-1.4-0.4c-0.4-0.2-0.8-0.6-1-1c-0.2-0.4-0.4-0.9-0.4-1.4h1.8
		c0,0.4,0.1,0.7,0.3,0.9c0.2,0.2,0.4,0.3,0.6,0.3c0.3,0,0.5-0.1,0.7-0.4c0.2-0.3,0.2-0.7,0.2-1.3c0-0.5-0.1-1-0.3-1.2
		c-0.2-0.3-0.5-0.4-0.8-0.4s-0.6,0.1-0.8,0.4l-0.1,0.2L293.5,372.8z"/>
	<path class="st5" d="M304.8,373.9h0.8v1.5h-0.8v2H303v-2h-3.1l-0.1-1.2l3.2-6.2h1.8V373.9L304.8,373.9z M301.5,373.9h1.4v-3.1
		l0,0.1L301.5,373.9z"/>
</g>
<g class="st2">
	<path class="st5" d="M323.6,377.5h-1.8v-7.2L320,371v-1.5l3.4-1.4h0.2L323.6,377.5L323.6,377.5z"/>
	<path class="st5" d="M331.8,377.5h-5.5v-1.3l2.5-3.2c0.3-0.4,0.6-0.8,0.7-1.2s0.2-0.7,0.2-1c0-0.4-0.1-0.8-0.2-1
		c-0.1-0.2-0.4-0.4-0.6-0.4c-0.3,0-0.5,0.1-0.7,0.4c-0.2,0.3-0.3,0.7-0.3,1.2h-1.8c0-0.6,0.1-1.1,0.4-1.6s0.6-0.9,1-1.1
		c0.4-0.3,0.9-0.4,1.5-0.4c0.8,0,1.5,0.2,2,0.7c0.5,0.5,0.7,1.1,0.7,2c0,0.5-0.1,1.1-0.4,1.6s-0.7,1.2-1.4,2l-1.2,1.7h3.2
		L331.8,377.5L331.8,377.5z"/>
	<path class="st5" d="M334.6,371.9h0.9c0.3,0,0.6-0.1,0.7-0.4c0.2-0.2,0.2-0.5,0.2-1c0-0.4-0.1-0.7-0.2-0.9s-0.4-0.3-0.6-0.3
		c-0.3,0-0.5,0.1-0.6,0.3s-0.2,0.4-0.2,0.8h-1.8c0-0.5,0.1-0.9,0.3-1.3c0.2-0.4,0.5-0.7,1-0.9s0.9-0.3,1.4-0.3c0.9,0,1.5,0.2,2,0.7
		s0.7,1.1,0.7,2c0,0.4-0.1,0.8-0.3,1.2s-0.5,0.6-0.9,0.8c0.4,0.2,0.8,0.5,1,0.9c0.2,0.4,0.3,0.8,0.3,1.3c0,0.8-0.3,1.5-0.8,2
		c-0.5,0.5-1.2,0.8-2.1,0.8c-0.8,0-1.5-0.2-2-0.8c-0.5-0.5-0.8-1.1-0.8-2h1.8c0,0.3,0.1,0.6,0.3,0.9c0.2,0.2,0.4,0.3,0.7,0.3
		c0.3,0,0.6-0.1,0.8-0.4c0.2-0.2,0.3-0.5,0.3-0.9c0-0.9-0.4-1.4-1.1-1.4h-0.9L334.6,371.9L334.6,371.9L334.6,371.9z"/>
	<path class="st5" d="M343.7,377.5h-1.8v-7.2l-1.8,0.7v-1.5l3.4-1.4h0.2L343.7,377.5L343.7,377.5z"/>
</g>
<g class="st2">
	<path class="st5" d="M367,368v1.5h-0.1c-0.7,0-1.2,0.2-1.6,0.6c-0.4,0.4-0.6,1-0.7,1.7c0.4-0.4,0.9-0.7,1.5-0.7
		c0.7,0,1.2,0.3,1.6,0.9s0.6,1.4,0.6,2.3c0,0.6-0.1,1.2-0.4,1.7c-0.2,0.5-0.6,0.9-1,1.1s-0.9,0.4-1.4,0.4c-0.9,0-1.5-0.3-2-1
		c-0.5-0.7-0.8-1.6-0.8-2.8v-0.7c0-1,0.2-2,0.5-2.7c0.3-0.8,0.8-1.4,1.4-1.8c0.6-0.4,1.3-0.6,2.1-0.6L367,368L367,368z M365.5,372.6
		c-0.2,0-0.4,0.1-0.6,0.2c-0.2,0.1-0.3,0.3-0.4,0.5v0.7c0,0.7,0.1,1.2,0.3,1.5s0.4,0.5,0.7,0.5s0.5-0.2,0.7-0.5
		c0.2-0.3,0.3-0.7,0.3-1.2c0-0.5-0.1-0.9-0.3-1.2C366,372.8,365.8,372.6,365.5,372.6z"/>
	<path class="st5" d="M371,371.9h0.9c0.3,0,0.6-0.1,0.7-0.4c0.2-0.2,0.2-0.5,0.2-1c0-0.4-0.1-0.7-0.2-0.9s-0.4-0.3-0.6-0.3
		c-0.3,0-0.5,0.1-0.6,0.3s-0.2,0.4-0.2,0.8h-1.8c0-0.5,0.1-0.9,0.3-1.3c0.2-0.4,0.5-0.7,1-0.9s0.9-0.3,1.4-0.3c0.9,0,1.5,0.2,2,0.7
		s0.7,1.1,0.7,2c0,0.4-0.1,0.8-0.3,1.2s-0.5,0.6-0.9,0.8c0.4,0.2,0.8,0.5,1,0.9s0.3,0.8,0.3,1.3c0,0.8-0.3,1.5-0.8,2
		c-0.5,0.5-1.2,0.8-2.1,0.8c-0.8,0-1.5-0.2-2-0.8c-0.5-0.5-0.8-1.1-0.8-2h1.8c0,0.3,0.1,0.6,0.3,0.9c0.2,0.2,0.4,0.3,0.7,0.3
		c0.3,0,0.6-0.1,0.8-0.4c0.2-0.2,0.3-0.5,0.3-0.9c0-0.9-0.4-1.4-1.1-1.4H371L371,371.9L371,371.9L371,371.9z"/>
	<path class="st5" d="M380.4,368v1.5h-0.1c-0.7,0-1.2,0.2-1.6,0.6c-0.4,0.4-0.6,1-0.7,1.7c0.4-0.4,0.9-0.7,1.5-0.7
		c0.7,0,1.2,0.3,1.6,0.9s0.6,1.4,0.6,2.3c0,0.6-0.1,1.2-0.4,1.7c-0.2,0.5-0.6,0.9-1,1.1s-0.9,0.4-1.4,0.4c-0.9,0-1.5-0.3-2-1
		c-0.5-0.7-0.8-1.6-0.8-2.8v-0.7c0-1,0.2-2,0.5-2.7c0.3-0.8,0.8-1.4,1.4-1.8c0.6-0.4,1.3-0.6,2.1-0.6L380.4,368L380.4,368z
		 M378.9,372.6c-0.2,0-0.4,0.1-0.6,0.2c-0.2,0.1-0.3,0.3-0.4,0.5v0.7c0,0.7,0.1,1.2,0.3,1.5c0.2,0.3,0.4,0.5,0.7,0.5
		s0.5-0.2,0.7-0.5c0.2-0.3,0.3-0.7,0.3-1.2c0-0.5-0.1-0.9-0.3-1.2C379.4,372.8,379.1,372.6,378.9,372.6z"/>
</g>
<g class="st2">
	<path class="st5" d="M405.8,368v1.5h-0.1c-0.7,0-1.2,0.2-1.6,0.6c-0.4,0.4-0.6,1-0.7,1.7c0.4-0.4,0.9-0.7,1.5-0.7
		c0.7,0,1.2,0.3,1.6,0.9s0.6,1.4,0.6,2.3c0,0.6-0.1,1.2-0.4,1.7c-0.2,0.5-0.6,0.9-1,1.1s-0.9,0.4-1.4,0.4c-0.9,0-1.5-0.3-2-1
		c-0.5-0.7-0.8-1.6-0.8-2.8v-0.7c0-1,0.2-2,0.5-2.7c0.3-0.8,0.8-1.4,1.4-1.8c0.6-0.4,1.3-0.6,2.1-0.6L405.8,368L405.8,368z
		 M404.2,372.6c-0.2,0-0.4,0.1-0.6,0.2c-0.2,0.1-0.3,0.3-0.4,0.5v0.7c0,0.7,0.1,1.2,0.3,1.5c0.2,0.3,0.4,0.5,0.7,0.5
		s0.5-0.2,0.7-0.5c0.2-0.3,0.3-0.7,0.3-1.2c0-0.5-0.1-0.9-0.3-1.2C404.8,372.8,404.5,372.6,404.2,372.6z"/>
	<path class="st5" d="M413,373.9h0.8v1.5H413v2h-1.8v-2H408l-0.1-1.2l3.2-6.2h1.8V373.9L413,373.9z M409.7,373.9h1.4v-3.1l0,0.1
		L409.7,373.9z"/>
	<path class="st5" d="M420.3,373.6c0,1.3-0.2,2.3-0.7,3s-1.1,1-2,1c-0.9,0-1.5-0.3-2-1s-0.7-1.6-0.7-2.9v-1.8c0-1.3,0.2-2.3,0.7-3
		s1.1-1,2-1s1.5,0.3,2,1s0.7,1.6,0.7,2.9V373.6L420.3,373.6z M418.5,371.6c0-0.7-0.1-1.3-0.2-1.7c-0.1-0.4-0.4-0.6-0.7-0.6
		c-0.6,0-0.9,0.7-0.9,2v2.3c0,0.8,0.1,1.3,0.2,1.7c0.1,0.4,0.4,0.6,0.7,0.6c0.3,0,0.5-0.2,0.7-0.5c0.1-0.4,0.2-0.9,0.2-1.6
		L418.5,371.6L418.5,371.6z"/>
</g>
<g class="st2">
	<path class="st5" d="M441.8,377.5H440v-7.2l-1.8,0.7v-1.5l3.4-1.4h0.2V377.5L441.8,377.5z"/>
	<path class="st5" d="M450,373.6c0,1.3-0.2,2.3-0.7,3s-1.1,1-2,1c-0.9,0-1.5-0.3-2-1s-0.7-1.6-0.7-2.9v-1.8c0-1.3,0.2-2.3,0.7-3
		s1.1-1,2-1c0.9,0,1.5,0.3,2,1s0.7,1.6,0.7,2.9V373.6L450,373.6z M448.1,371.6c0-0.7-0.1-1.3-0.2-1.7s-0.4-0.6-0.7-0.6
		c-0.6,0-0.9,0.7-0.9,2v2.3c0,0.8,0.1,1.3,0.2,1.7c0.1,0.4,0.4,0.6,0.7,0.6c0.3,0,0.5-0.2,0.7-0.5c0.1-0.4,0.2-0.9,0.2-1.6
		L448.1,371.6L448.1,371.6z"/>
	<path class="st5" d="M455.2,377.5h-1.8v-7.2l-1.8,0.7v-1.5l3.4-1.4h0.2L455.2,377.5L455.2,377.5z"/>
	<path class="st5" d="M463.4,369.1l-3,8.4h-1.9l3-7.9h-3.8V368h5.7L463.4,369.1L463.4,369.1z"/>
</g>
<g class="st2">
	<path class="st5" d="M486.4,369.1l-3,8.4h-1.9l3-7.9h-3.8V368h5.7L486.4,369.1L486.4,369.1z"/>
	<path class="st5" d="M492.9,370.5c0,0.5-0.1,0.9-0.3,1.2c-0.2,0.4-0.5,0.6-0.8,0.9c0.4,0.2,0.7,0.5,0.9,0.9s0.3,0.8,0.3,1.4
		c0,0.8-0.2,1.5-0.7,2s-1.1,0.7-2,0.7s-1.5-0.2-2-0.7c-0.5-0.5-0.7-1.1-0.7-2c0-0.5,0.1-1,0.3-1.4c0.2-0.4,0.5-0.7,0.9-0.9
		c-0.4-0.2-0.6-0.5-0.8-0.9c-0.2-0.4-0.3-0.8-0.3-1.2c0-0.8,0.2-1.5,0.7-1.9c0.5-0.5,1.1-0.7,1.9-0.7c0.8,0,1.4,0.2,1.9,0.7
		C492.6,369.1,492.9,369.7,492.9,370.5z M490.3,376.1c0.3,0,0.5-0.1,0.6-0.4c0.1-0.2,0.2-0.6,0.2-1s-0.1-0.8-0.2-1
		c-0.2-0.2-0.4-0.4-0.6-0.4c-0.3,0-0.5,0.1-0.6,0.4c-0.2,0.2-0.2,0.6-0.2,1s0.1,0.8,0.2,1S490,376.1,490.3,376.1z M491,370.6
		c0-0.4-0.1-0.7-0.2-0.9c-0.1-0.2-0.3-0.3-0.5-0.3c-0.2,0-0.4,0.1-0.5,0.3c-0.1,0.2-0.2,0.5-0.2,0.9c0,0.4,0.1,0.7,0.2,0.9
		c0.1,0.2,0.3,0.3,0.5,0.3c0.2,0,0.4-0.1,0.5-0.3C491,371.3,491,371,491,370.6z"/>
	<path class="st5" d="M494.5,372.8l0.5-4.8h4.6v1.6h-3l-0.2,2c0.4-0.2,0.7-0.4,1.1-0.4c0.8,0,1.4,0.3,1.8,0.8s0.6,1.3,0.6,2.3
		c0,1-0.2,1.7-0.8,2.3s-1.2,0.9-2,0.9c-0.5,0-1-0.1-1.4-0.4c-0.4-0.2-0.8-0.6-1-1c-0.2-0.4-0.4-0.9-0.4-1.4h1.8
		c0,0.4,0.1,0.7,0.3,0.9c0.2,0.2,0.4,0.3,0.6,0.3c0.3,0,0.5-0.1,0.7-0.4c0.2-0.3,0.2-0.7,0.2-1.3c0-0.5-0.1-1-0.3-1.2
		c-0.2-0.3-0.5-0.4-0.8-0.4s-0.6,0.1-0.8,0.4l-0.1,0.2L494.5,372.8z"/>
</g>
</svg>
