<?xml version="1.0" encoding="utf-8"?>
<!-- Generator: Adobe Illustrator 24.1.2, SVG Export Plug-In . SVG Version: 6.00 Build 0)  -->
<svg version="1.0" id="Layer_1" xmlns="http://www.w3.org/2000/svg" xmlns:xlink="http://www.w3.org/1999/xlink" x="0px" y="0px"
	 viewBox="0 0 600.61 371.61" style="enable-background:new 0 0 600.61 371.61;" xml:space="preserve">
<style type="text/css">
	.st0{fill:#5B5B5F;}
	.st1{font-family:'MyriadPro-Regular';}
	.st2{font-size:11px;}
	.st3{fill:#98CA42;}
	.st4{fill:#16687C;}
	.st5{fill:#E73F30;}
	.st6{fill:#FBB61D;}
	.st7{fill:#1A95CA;}
	.st8{fill:#1B95CE;}
	.st9{fill:#5A5B5E;}
	.st10{font-family:'Roboto-Bold';}
	.st11{font-size:10px;}
	.st12{font-size:12px;}
	.st13{fill:none;stroke:#5A5B5E;stroke-miterlimit:10;}
	.st14{fill:none;stroke:#BBBBBB;stroke-width:0.5;stroke-miterlimit:10;}
	.st15{fill:#1795CC;}
</style>
<rect x="48.4" y="344.56" class="st0" width="9" height="9"/>
<text transform="matrix(1 0 0 1 60.1709 352.9179)" class="st0 st1 st2">North America</text>
<rect x="139.4" y="344.56" class="st3" width="9" height="9"/>
<text transform="matrix(1 0 0 1 151.1709 352.9179)" class="st3 st1 st2">Western Europe</text>
<rect x="230.4" y="344.56" class="st4" width="9" height="9"/>
<text transform="matrix(1 0 0 1 242.1709 352.9179)" class="st4 st1 st2">Eastern Europe</text>
<rect x="321.4" y="344.56" class="st5" width="9" height="9"/>
<text transform="matrix(1 0 0 1 333.1709 352.9179)" class="st5 st1 st2">Asia Pacific</text>
<rect x="396.66" y="344.56" class="st6" width="9" height="9"/>
<text transform="matrix(1 0 0 1 408.4336 352.9179)" class="st6 st1 st2">Latin America</text>
<rect x="487.66" y="344.56" class="st7" width="9" height="9"/>
<text transform="matrix(1 0 0 1 499.4336 352.9179)" class="st8 st1 st2">Middle East &amp; Africa</text>
<text transform="matrix(1 0 0 1 79.9341 308.5995)" class="st9 st10 st11">2020</text>
<text transform="matrix(1 0 0 1 129.4888 308.5995)" class="st9 st10 st11">2020</text>
<text transform="matrix(1 0 0 1 177.3535 308.5995)" class="st9 st10 st11">2021</text>
<text transform="matrix(1 0 0 1 225.7817 308.5995)" class="st9 st10 st11">2022</text>
<text transform="matrix(1 0 0 1 273.084 308.5995)" class="st9 st10 st11">2023</text>
<text transform="matrix(1 0 0 1 320.3862 308.5995)" class="st9 st10 st11">2024</text>
<text transform="matrix(1 0 0 1 368.251 308.5995)" class="st9 st10 st11">2025</text>
<text transform="matrix(1 0 0 1 418.3687 308.5995)" class="st9 st10 st11">2026</text>
<text transform="matrix(1 0 0 1 464.5444 308.5995)" class="st9 st10 st11">2027</text>
<text transform="matrix(1 0 0 1 513.5361 308.5995)" class="st9 st10 st11">2028</text>
<text transform="matrix(1 0 0 1 34.9727 284.6425)" class="st9 st10 st11">2021</text>
<text transform="matrix(1 0 0 1 34.9727 247.4765)" class="st9 st10 st11">2021</text>
<text transform="matrix(1 0 0 1 34.9727 210.3104)" class="st9 st10 st11">2021</text>
<text transform="matrix(1 0 0 1 34.9727 173.1444)" class="st9 st10 st11">2021</text>
<text transform="matrix(1 0 0 1 34.9727 135.9784)" class="st9 st10 st11">2021</text>
<text transform="matrix(1 0 0 1 34.9727 98.8119)" class="st9 st10 st11">2021</text>
<text transform="matrix(1 0 0 1 34.9727 56.6459)" class="st9 st10 st11">2021</text>
<text transform="matrix(1 0 0 1 34.9727 19.4799)" class="st9 st10 st11">2021</text>
<text transform="matrix(0 -1 1 0 23.8643 163.016)" class="st9 st10 st12">(Millions)</text>
<line class="st13" x1="548.14" y1="282.28" x2="66.11" y2="282.28"/>
<line class="st14" x1="548.14" y1="243.99" x2="66.11" y2="243.99"/>
<line class="st14" x1="548.14" y1="205.7" x2="66.11" y2="205.7"/>
<line class="st14" x1="548.14" y1="167.41" x2="66.11" y2="167.41"/>
<line class="st14" x1="548.14" y1="129.12" x2="66.11" y2="129.12"/>
<line class="st14" x1="548.14" y1="90.82" x2="66.11" y2="90.82"/>
<line class="st14" x1="548.14" y1="52.53" x2="66.11" y2="52.53"/>
<line class="st14" x1="548.14" y1="14.24" x2="66.11" y2="14.24"/>
<line class="st14" x1="68.93" y1="13.68" x2="68.93" y2="282.28"/>
<line class="st14" x1="116.91" y1="13.68" x2="116.91" y2="282.28"/>
<line class="st14" x1="164.88" y1="13.68" x2="164.88" y2="282.28"/>
<line class="st14" x1="212.86" y1="13.68" x2="212.86" y2="282.28"/>
<line class="st14" x1="260.84" y1="13.68" x2="260.84" y2="282.28"/>
<line class="st14" x1="308.82" y1="13.68" x2="308.82" y2="282.28"/>
<line class="st14" x1="356.8" y1="13.68" x2="356.8" y2="282.28"/>
<line class="st14" x1="404.77" y1="13.68" x2="404.77" y2="282.28"/>
<line class="st14" x1="452.75" y1="13.68" x2="452.75" y2="282.28"/>
<line class="st14" x1="500.73" y1="13.68" x2="500.73" y2="282.28"/>
<line class="st14" x1="548.71" y1="13.68" x2="548.71" y2="282.28"/>
<rect x="81.32" y="216.08" class="st0" width="19.71" height="66.29"/>
<rect x="129.85" y="189.5" class="st0" width="19.71" height="92.87"/>
<rect x="178.37" y="167.98" class="st0" width="19.71" height="114.39"/>
<rect x="226.9" y="146.09" class="st0" width="19.71" height="136.28"/>
<rect x="275.43" y="125.88" class="st0" width="19.71" height="156.49"/>
<rect x="323.96" y="109.54" class="st0" width="19.71" height="172.83"/>
<rect x="372.49" y="94.03" class="st0" width="19.71" height="188.35"/>
<rect x="421.02" y="81.57" class="st0" width="19.71" height="200.8"/>
<rect x="469.55" y="70.88" class="st0" width="19.71" height="211.49"/>
<rect x="518.07" y="63.74" class="st0" width="19.71" height="218.63"/>
<g>
	<rect x="81.32" y="230.89" class="st3" width="19.71" height="51.48"/>
	<rect x="129.85" y="214.98" class="st3" width="19.71" height="67.39"/>
	<rect x="178.37" y="197.19" class="st3" width="19.71" height="85.18"/>
	<rect x="226.9" y="178.48" class="st3" width="19.71" height="103.89"/>
	<rect x="275.43" y="160.84" class="st3" width="19.71" height="121.53"/>
	<rect x="323.96" y="143.76" class="st3" width="19.71" height="138.61"/>
	<rect x="372.49" y="130.01" class="st3" width="19.71" height="152.36"/>
	<rect x="421.02" y="118.51" class="st3" width="19.71" height="163.87"/>
	<rect x="469.55" y="108.99" class="st3" width="19.71" height="173.38"/>
	<rect x="518.07" y="101.26" class="st3" width="19.71" height="181.11"/>
</g>
<g>
	<rect x="81.32" y="246.13" class="st4" width="19.71" height="36.24"/>
	<rect x="129.85" y="234.93" class="st4" width="19.71" height="47.44"/>
	<rect x="178.37" y="222.41" class="st4" width="19.71" height="59.96"/>
	<rect x="226.9" y="209.24" class="st4" width="19.71" height="73.13"/>
	<rect x="275.43" y="195.22" class="st4" width="19.71" height="87.16"/>
	<rect x="323.96" y="182.96" class="st4" width="19.71" height="99.41"/>
	<rect x="372.49" y="171.54" class="st4" width="19.71" height="110.83"/>
	<rect x="421.02" y="161.91" class="st4" width="19.71" height="120.46"/>
	<rect x="469.55" y="152.73" class="st4" width="19.71" height="129.64"/>
	<rect x="518.07" y="145.16" class="st4" width="19.71" height="137.21"/>
</g>
<g>
	<rect x="81.32" y="247.84" class="st5" width="19.71" height="34.53"/>
	<rect x="129.85" y="237.17" class="st5" width="19.71" height="45.2"/>
	<rect x="178.37" y="225.24" class="st5" width="19.71" height="57.13"/>
	<rect x="226.9" y="212.7" class="st5" width="19.71" height="69.68"/>
	<rect x="275.43" y="199.33" class="st5" width="19.71" height="83.04"/>
	<rect x="323.96" y="187.65" class="st5" width="19.71" height="94.72"/>
	<rect x="372.49" y="176.78" class="st5" width="19.71" height="105.6"/>
	<rect x="421.02" y="167.6" class="st5" width="19.71" height="114.77"/>
	<rect x="469.55" y="158.85" class="st5" width="19.71" height="123.52"/>
	<rect x="518.07" y="151.64" class="st5" width="19.71" height="130.73"/>
</g>
<g>
	<rect x="81.32" y="280.96" class="st6" width="19.71" height="1.41"/>
	<rect x="129.85" y="277.4" class="st6" width="19.71" height="4.97"/>
	<rect x="178.37" y="275.08" class="st6" width="19.71" height="7.29"/>
	<rect x="226.9" y="271.58" class="st6" width="19.71" height="10.79"/>
	<rect x="275.43" y="270.13" class="st6" width="19.71" height="12.24"/>
	<rect x="323.96" y="267.57" class="st6" width="19.71" height="14.8"/>
	<rect x="372.49" y="265.51" class="st6" width="19.71" height="16.86"/>
	<rect x="421.02" y="263.42" class="st6" width="19.71" height="18.95"/>
	<rect x="469.55" y="261.95" class="st6" width="19.71" height="20.42"/>
	<rect x="518.07" y="261.49" class="st6" width="19.71" height="20.88"/>
</g>
<g>
	<rect x="81.32" y="278.96" class="st15" width="19.71" height="3.41"/>
	<rect x="129.85" y="280.08" class="st15" width="19.71" height="2.29"/>
	<rect x="178.37" y="279.01" class="st15" width="19.71" height="3.36"/>
	<rect x="226.9" y="277.4" class="st15" width="19.71" height="4.97"/>
	<rect x="275.43" y="276.73" class="st15" width="19.71" height="5.64"/>
	<rect x="323.96" y="275.55" class="st15" width="19.71" height="6.82"/>
	<rect x="372.49" y="275.14" class="st15" width="19.71" height="7.23"/>
	<rect x="421.02" y="274.24" class="st15" width="19.71" height="8.13"/>
	<rect x="469.55" y="273.38" class="st15" width="19.71" height="8.99"/>
	<rect x="518.07" y="273.38" class="st15" width="19.71" height="8.99"/>
</g>
</svg>
