<?xml version="1.0" encoding="utf-8"?>
<!-- Generator: Adobe Illustrator 24.1.2, SVG Export Plug-In . SVG Version: 6.00 Build 0)  -->
<svg version="1.0" id="Layer_1" xmlns="http://www.w3.org/2000/svg" xmlns:xlink="http://www.w3.org/1999/xlink" x="0px" y="0px"
	 viewBox="0 0 544.19 509.68" style="enable-background:new 0 0 544.19 509.68;" xml:space="preserve">
<style type="text/css">
	.st0{fill:#4E4E4E;}
	.st1{font-family:'Roboto-Bold';}
	.st2{font-size:11.3855px;}
	.st3{font-family:'Roboto-Regular';}
	.st4{fill:#3F74B4;}
	.st5{fill:none;stroke:#55A4DB;stroke-miterlimit:10;}
	.st6{fill:none;stroke:#818181;stroke-miterlimit:10;}
	.st7{fill:#333333;}
	.st8{font-size:10.753px;}
	.st9{font-size:10.1205px;}
	.st10{fill:#676767;}
	.st11{fill:#3568AB;}
	.st12{font-size:15.1807px;}
	.st13{letter-spacing:1;}
</style>
<text transform="matrix(1 0 0 1 358.7769 108.1914)"><tspan x="0" y="0" class="st0 st1 st2">Traffic density in city area,</tspan><tspan x="0" y="13.66" class="st0 st3 st2">petabyte per square kilometer</tspan></text>
<rect x="358.46" y="143.04" class="st4" width="10.12" height="10.12"/>
<rect x="426.77" y="143.04" class="st5" width="10.12" height="10.12"/>
<rect x="138.34" y="77.26" class="st4" width="4.43" height="14.55"/>
<rect x="144.03" y="77.26" class="st5" width="83.18" height="14.23"/>
<rect x="138.34" y="101.3" class="st4" width="4.43" height="14.55"/>
<rect x="144.62" y="101.24" class="st5" width="62.98" height="14.23"/>
<rect x="138.34" y="124.7" class="st4" width="6.33" height="14.55"/>
<rect x="146.24" y="124.78" class="st5" width="51.24" height="14.23"/>
<rect x="138.34" y="147.47" class="st4" width="7.59" height="14.55"/>
<rect x="146.83" y="147.49" class="st5" width="60.78" height="14.23"/>
<rect x="138.34" y="170.88" class="st4" width="7.59" height="14.55"/>
<rect x="147.09" y="171.04" class="st5" width="50.39" height="14.23"/>
<rect x="138.34" y="194.28" class="st4" width="8.86" height="14.55"/>
<rect x="148.2" y="194.63" class="st5" width="99.89" height="14.23"/>
<rect x="138.34" y="217.68" class="st4" width="13.92" height="14.55"/>
<rect x="138.34" y="241.09" class="st4" width="18.34" height="14.55"/>
<rect x="138.34" y="263.86" class="st4" width="24.67" height="14.55"/>
<rect x="138.34" y="287.26" class="st4" width="32.26" height="14.55"/>
<rect x="138.34" y="310.67" class="st4" width="32.26" height="14.55"/>
<rect x="138.34" y="334.07" class="st4" width="38.58" height="14.55"/>
<rect x="138.34" y="357.47" class="st4" width="38.58" height="14.55"/>
<rect x="138.34" y="380.88" class="st4" width="60.09" height="14.55"/>
<rect x="138.34" y="404.28" class="st4" width="84.76" height="14.55"/>
<rect x="138.34" y="427.68" class="st4" width="154.97" height="14.55"/>
<rect x="138.34" y="451.09" class="st4" width="192.92" height="14.55"/>
<rect x="153.7" y="217.86" class="st5" width="94.38" height="14.23"/>
<rect x="157.72" y="241.48" class="st5" width="169.43" height="14.23"/>
<rect x="164.16" y="263.72" class="st5" width="152.87" height="14.23"/>
<rect x="172.18" y="287.37" class="st5" width="134.73" height="14.23"/>
<rect x="172.28" y="310.9" class="st5" width="105.53" height="14.23"/>
<rect x="179.08" y="334.27" class="st5" width="266.99" height="14.23"/>
<rect x="178.9" y="357.7" class="st5" width="177.98" height="14.23"/>
<rect x="199.92" y="380.86" class="st5" width="106.99" height="14.23"/>
<rect x="224.95" y="404.25" class="st5" width="191.39" height="14.23"/>
<polyline class="st5" points="459.03,441.6 295.21,441.6 295.21,427.68 468.52,427.68 "/>
<polyline class="st5" points="473.9,427.68 504.26,427.68 504.26,441.6 463.78,441.6 "/>
<polyline class="st5" points="469.15,450.99 333.22,450.99 333.22,464.91 458.4,464.91 "/>
<polyline class="st5" points="463.78,465 474.53,465 474.53,451.09 473.9,451.09 "/>
<polyline class="st6" points="458.08,442.55 464.41,429.9 467.57,431.16 472,421.04 "/>
<polyline class="st6" points="460.48,447.72 466.81,435.07 469.97,436.34 474.4,426.22 "/>
<polyline class="st6" points="457.89,466.2 464.21,453.55 467.37,454.81 471.8,444.69 "/>
<polyline class="st6" points="460.28,471.37 466.61,458.72 469.77,459.99 474.2,449.87 "/>
<polyline class="st6" points="458,73.75 464.33,61.1 467.49,62.37 471.92,52.25 "/>
<polyline class="st6" points="460.4,78.93 466.72,66.28 469.89,67.54 474.31,57.42 "/>
<polyline class="st6" points="462.8,64.15 138.66,64.15 138.66,465.95 "/>
<line class="st6" x1="188" y1="64.3" x2="188" y2="70.62"/>
<line class="st6" x1="237.96" y1="63.98" x2="237.96" y2="70.3"/>
<line class="st6" x1="287.93" y1="63.98" x2="287.93" y2="70.3"/>
<line class="st6" x1="337.27" y1="63.98" x2="337.27" y2="70.3"/>
<line class="st6" x1="386.61" y1="64.61" x2="386.61" y2="70.94"/>
<line class="st6" x1="436.58" y1="64.61" x2="436.58" y2="70.94"/>
<line class="st6" x1="508.69" y1="63.98" x2="508.69" y2="70.3"/>
<line class="st6" x1="471.37" y1="64.3" x2="508.69" y2="64.3"/>
<text transform="matrix(1 0 0 1 18.2124 87.8633)" class="st7 st3 st8">Abu Dhabi</text>
<text transform="matrix(1 0 0 1 233.9043 87.8633)" class="st7 st3 st8">0.9</text>
<text transform="matrix(1 0 0 1 17.96 111.4854)" class="st7 st3 st8">Rome</text>
<text transform="matrix(1 0 0 1 18.1401 134.7993)" class="st7 st3 st8">Berlin</text>
<text transform="matrix(1 0 0 1 18.3335 158.4209)" class="st7 st3 st8">Munich</text>
<text transform="matrix(1 0 0 1 18.041 181.3574)" class="st7 st3 st8">Madrid</text>
<text transform="matrix(1 0 0 1 17.8394 204.6724)" class="st7 st3 st8">Luxembourg City</text>
<text transform="matrix(1 0 0 1 18.1167 227.7568)" class="st7 st3 st8">Melbourne</text>
<text transform="matrix(1 0 0 1 18.3188 251.3262)" class="st7 st3 st8">Riyadh</text>
<text transform="matrix(1 0 0 1 18.5444 274.5508)" class="st7 st3 st8">Barcelona</text>
<text transform="matrix(1 0 0 1 18.3472 297.6162)" class="st7 st3 st8">London (inner)</text>
<text transform="matrix(1 0 0 1 18.4326 313.501)"><tspan x="0" y="0" class="st7 st3 st8">Singapore (central</tspan><tspan x="0" y="12.9" class="st7 st3 st8">region)</tspan></text>
<text transform="matrix(1 0 0 1 18.2734 345.6582)" class="st7 st3 st8">Paris</text>
<text transform="matrix(1 0 0 1 18.6484 369.2588)" class="st7 st3 st8">New York City</text>
<text transform="matrix(1 0 0 1 18.7529 392.8486)" class="st7 st3 st8">Helsinki</text>
<text transform="matrix(1 0 0 1 18.5259 415.9385)" class="st7 st3 st8">Tokyo (special wards)</text>
<text transform="matrix(1 0 0 1 18.4526 439.0615)" class="st7 st3 st8">New York (Manhattan)</text>
<text transform="matrix(1 0 0 1 18.6641 462.4014)" class="st7 st3 st8">Hong Kong (Kowloon)</text>
<text transform="matrix(1 0 0 1 18.6226 490.8652)" class="st7 st3 st9">Unless specified, excludes areas outside the smallest definition of “city,” that is, “metropolitan” or “urban” areas.</text>
<text transform="matrix(1 0 0 1 213.4663 111.2012)" class="st7 st3 st8">0.7</text>
<text transform="matrix(1 0 0 1 203.4106 134.7427)" class="st7 st3 st8">0.6</text>
<text transform="matrix(1 0 0 1 213.311 158.2109)" class="st7 st3 st8">0.7</text>
<text transform="matrix(1 0 0 1 203.1362 181.1055)" class="st7 st3 st8">0.6</text>
<text transform="matrix(1 0 0 1 254.3696 204.6118)" class="st7 st3 st8">1.1</text>
<text transform="matrix(1 0 0 1 254.2842 227.7852)" class="st7 st3 st8">1.1</text>
<text transform="matrix(1 0 0 1 332.3057 251.3896)" class="st7 st3 st8">1.9</text>
<text transform="matrix(1 0 0 1 322.9717 274.833)" class="st7 st3 st8">1.8</text>
<text transform="matrix(1 0 0 1 312.353 297.7266)" class="st7 st3 st8">1.7</text>
<text transform="matrix(1 0 0 1 312.8613 391.7236)" class="st7 st3 st8">1.7</text>
<text transform="matrix(1 0 0 1 283.1323 320.8799)" class="st7 st3 st8">1.4</text>
<text transform="matrix(1 0 0 1 451.6079 344.7734)" class="st7 st3 st8">3.1</text>
<text transform="matrix(1 0 0 1 363.5776 368.626)" class="st7 st3 st8">2.2</text>
<text transform="matrix(1 0 0 1 423.1411 414.9609)" class="st7 st3 st8">2.8</text>
<text transform="matrix(1 0 0 1 511.5352 438.043)" class="st7 st3 st8">8.4</text>
<text transform="matrix(1 0 0 1 480.9453 461.4941)" class="st7 st3 st8">6.1</text>
<text transform="matrix(1 0 0 1 135.4033 56.2427)" class="st10 st3 st8">0</text>
<text transform="matrix(1 0 0 1 180.4019 56.4438)" class="st10 st3 st8">0.5</text>
<text transform="matrix(1 0 0 1 230.3994 56.123)" class="st10 st3 st8">1.0</text>
<text transform="matrix(1 0 0 1 280.5776 56.2861)" class="st10 st3 st8">1.5</text>
<text transform="matrix(1 0 0 1 329.7598 55.8833)" class="st10 st3 st8">2.0</text>
<text transform="matrix(1 0 0 1 379.0845 55.6152)" class="st10 st3 st8">2.5</text>
<text transform="matrix(1 0 0 1 428.8994 55.8452)" class="st10 st3 st8">3.0</text>
<text transform="matrix(1 0 0 1 499.625 55.7266)" class="st10 st3 st8">9.0</text>
<text transform="matrix(1 0 0 1 372.584 151.4253)" class="st10 st3 st8">2017</text>
<text transform="matrix(1 0 0 1 440.897 151.4253)" class="st10 st3 st8">2025</text>
<text transform="matrix(1 0 0 1 14.8506 22.8945)" class="st11 st1 st12 st13">Data Network Traffic Density In City Areas</text>
</svg>
